<mxfile host="app.diagrams.net" agent="Mozilla/5.0 (Windows NT 10.0; Win64; x64) AppleWebKit/537.36 (KHTML, like Gecko) Chrome/130.0.0.0 Safari/537.36 Edg/130.0.0.0" version="24.8.4">
  <diagram name="第 1 页" id="EE-2HEjpA-ClBd__JiwM">
    <mxGraphModel dx="1426" dy="793" grid="1" gridSize="10" guides="1" tooltips="1" connect="1" arrows="1" fold="1" page="1" pageScale="1" pageWidth="827" pageHeight="1169" math="0" shadow="0">
      <root>
        <mxCell id="0" />
        <mxCell id="1" parent="0" />
        <mxCell id="oL7Sl4MgC56TpXQjwD5U-11" style="edgeStyle=orthogonalEdgeStyle;rounded=0;orthogonalLoop=1;jettySize=auto;html=1;exitX=1;exitY=0.5;exitDx=0;exitDy=0;startArrow=classic;startFill=1;" edge="1" parent="1" source="oL7Sl4MgC56TpXQjwD5U-1" target="oL7Sl4MgC56TpXQjwD5U-10">
          <mxGeometry relative="1" as="geometry" />
        </mxCell>
        <mxCell id="oL7Sl4MgC56TpXQjwD5U-37" style="edgeStyle=orthogonalEdgeStyle;rounded=0;orthogonalLoop=1;jettySize=auto;html=1;exitX=1;exitY=1;exitDx=0;exitDy=0;entryX=0.5;entryY=0;entryDx=0;entryDy=0;curved=1;dashed=1;" edge="1" parent="1" source="oL7Sl4MgC56TpXQjwD5U-1" target="oL7Sl4MgC56TpXQjwD5U-36">
          <mxGeometry relative="1" as="geometry" />
        </mxCell>
        <mxCell id="oL7Sl4MgC56TpXQjwD5U-1" value="" style="shape=image;html=1;verticalAlign=top;verticalLabelPosition=bottom;labelBackgroundColor=#ffffff;imageAspect=0;aspect=fixed;image=https://cdn4.iconfinder.com/data/icons/socialcones/508/Gitlab-128.png" vertex="1" parent="1">
          <mxGeometry x="197" y="232" width="80" height="80" as="geometry" />
        </mxCell>
        <mxCell id="oL7Sl4MgC56TpXQjwD5U-4" value="" style="edgeStyle=orthogonalEdgeStyle;rounded=0;orthogonalLoop=1;jettySize=auto;html=1;" edge="1" parent="1" source="oL7Sl4MgC56TpXQjwD5U-2" target="oL7Sl4MgC56TpXQjwD5U-3">
          <mxGeometry relative="1" as="geometry">
            <Array as="points">
              <mxPoint x="24" y="192" />
              <mxPoint x="24" y="352" />
            </Array>
          </mxGeometry>
        </mxCell>
        <mxCell id="oL7Sl4MgC56TpXQjwD5U-5" value="Notify" style="edgeLabel;html=1;align=center;verticalAlign=middle;resizable=0;points=[];" vertex="1" connectable="0" parent="oL7Sl4MgC56TpXQjwD5U-4">
          <mxGeometry x="0.0069" y="1" relative="1" as="geometry">
            <mxPoint as="offset" />
          </mxGeometry>
        </mxCell>
        <mxCell id="oL7Sl4MgC56TpXQjwD5U-6" style="edgeStyle=orthogonalEdgeStyle;rounded=0;orthogonalLoop=1;jettySize=auto;html=1;entryX=0.5;entryY=0;entryDx=0;entryDy=0;" edge="1" parent="1" source="oL7Sl4MgC56TpXQjwD5U-2" target="oL7Sl4MgC56TpXQjwD5U-1">
          <mxGeometry relative="1" as="geometry" />
        </mxCell>
        <mxCell id="oL7Sl4MgC56TpXQjwD5U-7" value="OPEN&lt;div&gt;REOPEN&lt;/div&gt;" style="edgeLabel;html=1;align=center;verticalAlign=middle;resizable=0;points=[];" vertex="1" connectable="0" parent="oL7Sl4MgC56TpXQjwD5U-6">
          <mxGeometry x="-0.1579" y="1" relative="1" as="geometry">
            <mxPoint x="-13" y="1" as="offset" />
          </mxGeometry>
        </mxCell>
        <mxCell id="oL7Sl4MgC56TpXQjwD5U-2" value="Developer" style="shape=umlActor;verticalLabelPosition=bottom;verticalAlign=top;html=1;outlineConnect=0;" vertex="1" parent="1">
          <mxGeometry x="74" y="162" width="30" height="60" as="geometry" />
        </mxCell>
        <mxCell id="oL7Sl4MgC56TpXQjwD5U-8" style="edgeStyle=orthogonalEdgeStyle;rounded=0;orthogonalLoop=1;jettySize=auto;html=1;" edge="1" parent="1" source="oL7Sl4MgC56TpXQjwD5U-3" target="oL7Sl4MgC56TpXQjwD5U-1">
          <mxGeometry relative="1" as="geometry" />
        </mxCell>
        <mxCell id="oL7Sl4MgC56TpXQjwD5U-9" value="APPROVAL" style="edgeLabel;html=1;align=center;verticalAlign=middle;resizable=0;points=[];" vertex="1" connectable="0" parent="oL7Sl4MgC56TpXQjwD5U-8">
          <mxGeometry x="-0.4" y="-1" relative="1" as="geometry">
            <mxPoint x="17" y="-1" as="offset" />
          </mxGeometry>
        </mxCell>
        <mxCell id="oL7Sl4MgC56TpXQjwD5U-3" value="Reviewers" style="shape=umlActor;verticalLabelPosition=bottom;verticalAlign=top;html=1;outlineConnect=0;" vertex="1" parent="1">
          <mxGeometry x="74" y="322" width="30" height="60" as="geometry" />
        </mxCell>
        <mxCell id="oL7Sl4MgC56TpXQjwD5U-14" value="" style="edgeStyle=orthogonalEdgeStyle;rounded=0;orthogonalLoop=1;jettySize=auto;html=1;" edge="1" parent="1" source="oL7Sl4MgC56TpXQjwD5U-10" target="oL7Sl4MgC56TpXQjwD5U-13">
          <mxGeometry relative="1" as="geometry" />
        </mxCell>
        <mxCell id="oL7Sl4MgC56TpXQjwD5U-10" value="" style="shape=image;imageAspect=0;aspect=fixed;verticalLabelPosition=bottom;verticalAlign=top;image=data:image/png,iVBORw0KGgoAAAANSUhEUgAAAMgAAADICAYAAACtWK6eAAAAAXNSR0IArs4c6QAAIABJREFUeF7sXQd0VMXXn3lb03tII51QpFcp0qRa6CqKSpUiSEeqoCCoVJEmf6VLL1JCCyUJCSSkkJAeyCa76b1tL+/N973FLNnsbvZlswkLZM7xyMnO3Jm5M783M7dC0FJaONDCAZ0cgC28aeFACwd0c6AFIC27o4UD9XCgBSAt26OFAy0AadkDLRwwjAMtJ4hhfGtp9ZZwoAUgb8lCt0zTMA60AMQwvrW0eks40AKQt2ShW6ZpGAdaAGIY31pavSUcaAHIW7LQLdM0jAMtADGMby2t3hIOtADExBfa39OzA4LQBSLMAmHIHAFgDhG0AEj5bzaEUAQg4iOE+ADRqmk0VI0IQoBwejXBIPhSqZSfn58vMvFpmuzwWgBiAkvj4+PTGRJETwhAOwCgHwDACwDkBQB0NNLw+ACCNABAKgIgFcNhCg0oYtJzcvKNRP+NJdMCkGZe2g5OHSxlFqL3AQB9EQK9AADvAgDMm3kYNd3lIYAiIMAeIwKGZuZkRr+icZhsty0AaYal8fDwsGfSaOMggBMBAMMAAMxm6LbBXSAAsgACZxANnsnKykpoMIE3sEELQJpoUdu2bWuFSyRfIQAnAQCGNFE3TUk2FQL0D40gjr7NV7EWgBh5i/n7+IwgCGIWBPATI5N+leSCIYKHM7Kz/nmVg3gVfbcAxAhc9/HxaYshNAMg8CUAwM0IJOsjQUqkKgBAFQDCCoSAFQTAFrz8rym7z4YIrsvIzjrRlJ2YEu0WgDRiNfy9vUciBL4HAAxtBBmtTZkMeqGbm3N2lw4BVe0CfJkdO/hbt/X3cjFns121NYAACBEAJTl5hVWczFxRBjdbnsXLgylpmeycgiJbiUTaxohjfAYAWsXh8f41Ik2TJNUCEAOWxd/T5ysE0XIAQGcDmutsAiHMGjtycMj82Z+1dm3lRD7mjVcQkD+OS0q9GxxZER4ZZ5lXWORPEMimMR0gCK7hCM3h8XgFjaFjym1bAEJxddzc3MzN6KyZAKAVAILWFJtRqsZmMzmzvpqQMnfaJ50AAN6UGhmh0tPk56n/nAssefAo1lUoEht6wlRDAJdl8LL+NsKQTI5EC0AoLImfl88KANBqAIAdheqUq7CYzMwFsyY/n/HluOEIIYxywyaoyMsu4Bw9c7Xg5t0wJ4FQ3NaALi6L5bIpb5rWvgUg9ewEH0+f4RiG9gEEDP26aqXOYNB4c6Z9kjJv2idDSHMRAzZjkzbJyMx+tPuvU4Wh4U/aEwTennJnECTSFIrRz3Jz8yi3MfGKLQDRskB+Hn7+gIbvBgB8oG/9GAxG3JDBg4q+nDq1G59fnb944WJnuVzurqvd2NGDHmz5YWFXhIC1Ptom8HvOxcC7kbsO/ONSWcl/j+J4ihGBffSmaOVbAFJr1f38/JyBHN8IIJijZzNwOnbq+HDBgvkOPj4+H9auO33GzMf5uXl96rbv0NY37ffN3zu7uTrZU9xojakmRgiJAEBiAKAUIiQjAFIAgiAABCKEQDkGAB/SaLYIQBcAgCeEsN5xpT/LurhozTbz3IKi0VQGhiD4IpPLPU2lrinXaQEI+Sr29ralIbQGAPgd0H3lEdvZ2t2cOm1a6agPRr4HAVC7epSVlSVv3bpdFB8XR9pXqYqFuVnJL+sXEkPf693K6BsBASlCRA7CFSJcIbNEuMwDEQrDzFggyMNo9AoMY4gRRsdpkIYhGg1gkNYOwJenXWx8yp3vf/zdpqikrLf++cDNHF7WOv31TLfGWw8Qfy+vmQDArQgAXV/Qgr7v9rm6fPlyJ0trqwl1l1IikYLZs2fHFBUW9az726QxI+J+XDmnm3GWHwkRQaTgCoUMKKSWOK7wA0hhaRza9VIRY3TWUxrTrBzS6XYQYOQ8GWf/vXX95x1/d0MI6VGMor84PN7sZhhnk3Tx1gLEr7VfR4Dhf/1nTauNuQXvDeh/e9369R4AIK06iecZGbFrV691qKqqUhPNtnZ3efrX7+sdPNxaeTRm1RBCTwlcXk7IxE6EQkqeWLTG0DNOW1iBMZipGMNMzBdI3D6YPF9czRd1r482AnBfJi9rgXH6b14qbx1APDw8zFg0xiYA0DIdrK4eMmRw4Ko1q3wAAn211BEXFBbGXDh/gX79WmAAAsChdp250yY9WvDN5/0MXUZE4LGETAxxhbQtInALQ+k0VzuI0Urmrt5dEfUkOaD+PtFeDo9HXmFfq/JWAcTf2/tdhMCZFw5JmqVVK5fQ7Tu3Y85OjhoSG4IgCrhc3rOIiMduISEh5dm8rB4AQHoNFWtLi8Ije37C2wb46JRg1bMzCAKXx+ESgReBy43lJNVsGxEhRExbsjU0KZ2rx2oZbefweCuabWBG6OitAAhpei6XyHZBgGZq4xmdTs9fuGjB05EjR2lIaOQKxbO0lPSCiMePO4rFYofwBw+iq6ur1B7ifXp04uz9bZWfmVnDVBoIoUqEy7NxqaAtgStYRljPV0pi6Y8HboU+ThhV3yAgAr9mZHNJpetrUd54gPj6+npCnLgF6kidalbnnY7vBG/5ZUtnNouldlUif8/K5IVeDQwcRP5bJpflPQi+XyGTyTvWXtkF30xO/M9EhPKCQ4AkuFz2XCEVdEQE/katwW/7ztw6FxhaP0gAWpDB4+2jzLBXWPGNWpy6fCR9vTGCuKfNtxtCWD1n7pyI8ePHjazbDicI3oPQ8IKExETSHRYghMCdoNupCrlcJdql0bDCkwe3wI7t2zRIfEvgimi5uKoDeA3eF4buy79P37h74Pg10sJZl/kMjhA2ODM7M9zQPpqr3RsLEF8vrw8ggOe1+XubW5in/rF3j6i1u3uPuoyuqKyMuHo5sHVldZVKAhUX9yS8IC9vgOq9YWWZcOPM3s62tlaU1wkhPBqXCF1wucSoho6UB9DMFXf/fen28Yt3ND4+tYZRgUPQncvlcpt5aA3q7o0EiK+n70cQEte0ccK/TZvwffv2dAUA1NUh4InJyeH374Uor1Q1pays9PnjiAiVLZaFuVlsaODhHmwWNX0chIAvl4hicKngdXS7bdBmqlt56uJfg5LSeSPqIZLMEpm/m1KSImhUR03Y+I0DiG9r314QIx5o04gPHDgwYu26NRqiW5lUlnz77l15JieLBI5auRN0O0suk/mQf2QyGHEPbx3rZsam9p5GiMhSiKsJQiEjQ/m8dQUnCPmwyd/HV/OFakKNOoy4yeFxSXMdZIoMeqMA4u/p+Q6CGHmvJV1Q1coXX34eN/XrqRpabT6f//jEydPvyGVyDa10JocTlpaaohT50jAs5tHtEz0tzClKqhCRJOOXeSOAmkPbbYp7SzmmaoGodPjkFQIFTuj2c0FgESeb+4cpTuKNAcgLBSA9VZuOY+HC75I+/OhDNekTuRgSsSTu0NFjbRRyTZMNmUxWce9OEIaQ0uuOExF0ws/Kglr4KqSQpclEle1MccFfxZg4vIKMT+dudAZApwWzBOC0TpxcTsarGF99fb4xAPHz8tkMAGlwqF5Gjx4dsnjJosF1/y6VyVL/+eeUtUAg1KrYCwm+nyoSCkmplfT0od8KOrXzp+Tph0v4XIVMTKmuqW0GY46HRqMXYHQ2BzJYLIBBzys3Qp+s27yXFP9q33MQRHO4XFJqSBhzHI2l9UYApI2npy8BMU5dZgQEBDzcs/eP/nX/jhME9+zp8+KSslKtzkCc5xmh6empysf64jlfxM/6eqLG20Qb4+XCilwClzfK/qqxC2oC7RGNbXGHzjTvCwBUE/MtWPnrzZDwaN3m8gis5GRzt5rAHFRDeCMA4uvtfRUi8HFtxjo6OSWfPHninbrMJghUcuny5ey83HwNES9Zl8/np4WFBHsACC27d2mXfHz/Zg0a2hZQJqrkIoXsbT858piWDoUQo2nlLcm3wR/PjCotr9RpKk9gsF1WVla6qYDktQfIf/ZVEWoMhVB0+vRJob29vVPtvyOExDdu336a8YyjVADWLZUVlWmREQ8dCYJwxGhYZeStE7bmFB7lclFVFqGQKiVdb3EhWNZO2QDAej8S5ZXVGYM/nmFOEDrN5GM5PK6G68Cr4utrDxA/T+8/63oAjhw1Kmzp0sVqBodlpWWZR48dUzyNTyyo4leaYQBK2GbsMhqNRscwjIXjuE1pSanKE3D6F2PvLZv/NRlkut6iEFdn4HKJv7569f2O0RjlGNMsG6PRpQBgECJUpVCIAS4VDW8M3eZsSzO3DqfT2Splan19P4qKvz97ySbdscRM6Kr1+gPEy7uitliXQafnBd4IJCUmDAhh/PHjx3OvB95oVVFRUZ8sXm09GQx6RlzIWb2bHpcKEhVSERmqx6BCZ5lHY0wLJoSwizYCCKF4Gb/YAgBo1KARBg22nkY0OiuNbm7tDQBUycDFImnCroPHn10PeuhdVc2vORGKaTR6lquzg0gql3YoKa3UZaZTxOFxSVfgV15ea4D4enlNhABeqM3Fnj16pEkVcl56aqqtTCYnNx5FxcVLKquXzLg3ZdKH9Z4eSCF7JBNVGuT3gTGYGXSWVQHEaPoDIUBQKK0qrgYA6PG3eHV7iWFmcxxjsL6uGcGZS7cub975dz+EEPmhMqgggL7M5PFOGtTYiI1eb4B4et+GENRnymAQq+ZMn3T3u1mf64xsCAF4KuWXdDIklhWNbR1JZ7K1voHIwZaWlpfExqdmhz1+wn/8JMl8YN/uRdMnj7F0slaCSeV/YtDEmqgR08rhEoQ0pTvyD1v2BP17PcQIa4JiODwe5VO/iaamQybdVL0ZiS5pTgIw4n8QAEri1zrdShgMRo61tVWJq7t7dYC/P8PMzMzr5MlTqiuVl6drxPXTe7V5E5IMk8iElUICl2mYx+ubHtPSPhZidA0JT2FJWdFvu4+khT164iqRSrWdFNLe3d7JPLBlARm4ziSuHrXnyrByTsEg6PAkPjX16/nrqMfR0sMwCFCPDB7viT6+NuXvr90J4uvlswMCtLQhTEEACF1atQr/Yspk2ahRo8mvt5p0i6Q1euToMgIh5aaHEPITwy9oNdVVSEUcXCposG0Vy8oxBkBlwANVqQHGvdDH7QiC0Gs2z2DQn0de3WNq7xEh29pZjgCw/XLe2uj4hDTjffUh+IPD5S5qyFobu+5rBRA/b++zAIFPqTKByWTeHfPxR9lfT5vqz2KxBtbXbtbM2WE5OdmqN8H/dq7P69eni5qWHRGKxzJBuUbMK33joZlZX6Ez2GNr11uybnsoVWDUbjd2ZP/E9Yu/NFgwoG+shvzOsna6AQD8YMAH0zMrq6p9MQjK+3TvkDR2ZH9rFoMGC4rKRSkZPGnUk3TL4vLKDg1IOVfG4XFfqQvyawMQP2/vKwCBMVQWEMOw5/O+nfdgzJiPSdMGnT7iCCGhWCyOyczMKj1y+KhLUlKiSus+ZdIH0auXzKz1NYQCuahCTihkDYrPSzOzfkRnsNUe8yQ47gRHqJnVU5kXWWdIv273t/8w2+jpFqj2r60e3czmHAREz+7vT6X169kh5+fvZ/a0MGfpEo5I/jp1Per4hSAHkVimVwmLEPZxZnZmYGPG15i2rwVAfD2910MIfqIwUfGA9/rf/2HdugAAtYpGJSKhKImXnS1ITU93yMnOVX2Js7m8R0lJCaqN3KdXp4hDv/+oeocQMvFjuYTfoNMDYrCCaekkAQCocno0Bhzk/Nct/vL++JH9TQogkEYHCFeAlGc8TocAL8rXz8gnKU9XbjkEBEKRVjG3cr0ROMrJ5k6nsPZNUsXkAeLv5dUNAaj3ocZis8p27dxZ4ufvp2FFK5FKExISEqoSE5LbCoRCraLHivLy1IhHD1UPTF8vj8Srp3a/ABACmTJBqS9CDbOjo5tZB9EYbJVEpz5wkO8eT3fngkF9O7MH9eniaWtjCWytLAD5/yq+EPAFIlBWwS/s0sHX5B7pjd2ZXy3eej8lPUsX6PM4PO4rs28zeYD4eXsnAATqvXNbWVlm/+/vvzzt7dRvPwKhMDo6Khav8S2vbyElUknV/Tt3VAll7OxseGGBh5XhgeRSQSLRcIWgnGXtTEY5V5peHD8XGLF19xGtkrHe3do+/nHp1M6tHO3MGrvZXtf2P2w7evfG/cdaResYQB2e83ikK0OzF5MGiK+n7zAIiTv1ccXe3j7l8JFDHczMXu4tgiCK4p7Gp4eHRdT7MK9NVyqVSu7dCVLdm60szPMigk64I0TEyfilDQ4fSmOyI+hsayUg5AqFrP8H0zgioVhNBMpk0J//svob5uC+nbXG6Wr23fCKO1y68c+g0IinGjoUBMGSTC7391cxPNMGiJfXefgijbLW4u7h8fDw4b/VzNnLyssfX79+y7WiosKzIQwViURFIffvqUStNtZW6Q9vHm2rkPCTcJlYw9lKH22Whd1tQGMogxas3vRHyLVboWo+KeZmbO7RnSsc/LzdqEd+0NfpG/D7sM+WR1dUq7vokqneMrlcSgIaY7PAZAHi7e3tQkNAZ+67Vq1ahR8/cUzNOC6Tw029dv26QYqq6urqjPAHoSplob299ZMH1460llYXa+hMqCwC08oxGEJsyLOMrMyJ01bYI4RUbsAsJiPnxB+rnPy83BpsBkOl79e5Tl5hadaY6T+QQo3avHll4l6TBYifl88CANAebYtNw2j5Fy6d45ubW6hShQVev/mYw8lskJSpNu3y8rL4yEePVJp5b0+3J1ePb8flYvUoilQ3H8vaKQoA2PvreesePElIVbvq7Vw/Tziob2eTj7tLda7GrvfZvJ+DM7h5alFgEI4FZOZmPjd2X/romTBAvG8CALRG6Fu7bk3YwIEDVUq96Ngn/z56GDFe32Tr+z03O/tBQsJT1UYe2LdH5O8/zm2HCIVGAAgq/TCtnGIhhD26DPykEMcJleRp5uTR2d9OHdOg6x+V/t6kOqevBIdu//Ocup4Iwamc7KzjzT1PkwSIMqMsgynUxgw2m5155epl35rf8gvyH5w//y/lx7guBqckJd7icrkqQK6Y/9XDyR/103DXpbpALAv7G8ERcW7frfxVdSq5ujjwAo/83PIg18NEgVBSNmjSEjVbNwjAgQwe91uq/DdWPZMEiL+390iEABlPV6NMmDghaM6c2UpJBymtOn7ilLyq6mUUREMZE/Uo4kZpeakqJ+Glw5sTvVztDTbpwDBm6MP4DPsFK39R0di8cqZ81OCeDEPH+Da1GzJpWWy1UPTSsBOCMA6X2+gPYUN5aJIA8fPyWgYA3K5tMv9evphe8/ZISEgODQ5Rj4TYUAbU1A+5f++eSCRS+oCQtkTRNw40Opdg+JOMqEVrdyj9r7t18M//e8cyPdmYDB39m9du/fZjQdfvRapEvhCA8gwet8EW1I3ljEkCxN/L+zACQMO8gG1mFnflyr9KnYRYIk743/8Od24sA2ra37x+PRkhQmkb5OJoH3v9xGadgQeo9plXXFk0Zupqpeh4/5ZFoE+3llBZVHkXEZsSs2DdHnXfdDqtFYfDKaZKwxj1TBIgfl7eZBAGDaeiHj26X9vyyxZl9JK794KjkpNTKCSSpMQmxY3Aa6QdiTLg7sjBvcK2rJyh39uPAum8clnB9j2Hhbs2zNXrwkuBnNYqIrEUmJtRC4dqaB/N3Q7HicreH80nU2WrIsRDCAZncLmhzTkWUwVIKaiT2oxkyuy5s29NnDBhFEKoat/+gzY4jhuFVyKBMCsk5L4qKskvq2c+HTGwp24Dugb0itGZnKaOzXvy0r2cKRPef62ixm/efSp55uRRNJdW9jqP1XfHLHgml+MqBzII0KwMHu9QA9jf6KqmChCtgYy3bdsa27lL5x5l5RUp//xzivQrMErJy8uNfRoXp7pShZzfIbKyNKcWZ9QoI2gckSGfLo8JPrfdZELlUJnN6l8OhWUXlkhO7l6lM3LLJ7M3hmTmFKgsEBACP2Zmc6lYdVMZAqU6JgcQT09POwbEyrWN/vSZU2X29vYOUdExmRERj1WiXkozradSclLCIx6XpzR1ZzLp2RFX9rxWeooeo+eB7+d9Fv7ZmMGUwu40ll+NbQ8BBJv2nE7490Zo5xsntuS2crTTaq37y94zdy5cD1UBCAF4KJOXNaux/TekvckBRFcYUXJSt4NeSH6PHT8JKisrGzLPeutGPAyPqqioUL5n2vi5R5zZu06r1a3ROmwkIQgxgDHYT2gsMz6AtM6dB0wS2NtZPQs6+ZveOF6N7LpRzSGEgM62TsToTObJizdEv+w63G1Ar443d2+crzUcaXh0ctSi9XtfvjMRuM3JfqmratRgKDY2OYD4e3l1RwDG1h0/6VceFHTLgiAI4Z69B4xqpnHvzu00qVSmvAt/PWlExKKZ400TIDRGHp1tycFojE4QAJVt/8Spy6PSM7J67/5xXuKAPp0N1t3U5Xl2XlHZzOU783f/OE/coa13owQiGJ2RTDe3tYD/RV7Mzi0QfvDZAnIdiRv//FLZysFWQ6xeVlGdPeKLlbVOc5TE4fGMNj8qGDE5gPh5efUDAD7UHDwqvR1021EqlWX/efAvo16Bbt64XoIIQmmUuHPDtymD3u1ktPcNlUWgUgejM8MY5rZaJWsHjpxP3Pf3mU5+Xm7B5/78wWiZrJ4mc1JmLN/egU6jpYec3962oVl8a+YFIS2baeWgsWadB36SR+CE+/v9uwdvXfeNxrgRgcQ9P/yWNFqs2aclHB7X4FhbVPhct47JAeS/DFFRWiZTcDvolmtlRWXisRMnjfoVuRH4MlvblUMbizzcnPRGGDGE2Ya2gXRmHNPcVqdPyvMMXtH4qUuVY969cUHagF7vGEXhwssr5k2YtUFpGrN383cpfbt3MOjDwbJ2fAgApmG2M/rT+dE5eYW9IIClN/75xcrZwUZDVt3zg2+LEEKq9eDwuM26Z5u1MyobxM/TsweAWIyWumW3g2455OUXRFy4cMloVyCpVMq/dyeoxicDRQXugzSaruSsVGZg7DoQMK0cCyCEKr92bT30GPp5plQq87W2MI8IvrDDKPypFojKhnyyTKm9/nLCsPtLvpnYYF94SGPEMC3stErY1m3eG375RrBSsDB6cO/In1dO19B99R3z3TOZXKES9SIaZpuZmVllbC7romdyAPHx8emCEShey4D5t4NuWT1Lfx5683aQQRFBtDGhsqLi2aOH4coFoNOwwseB+0zK5xujMdMZFrYqs35dC7lg5a8hIeHRSpHoJx+8F7rquy+MwiNSQkYWczN2ZNilXTojQuoaF8Pc5hJGZymjLtYtQSERiUvXblfeBiCEVZf++pHl6e6s5iMzbPKKmIoqgQpgGCL8nmdnZ761APH19Q2AOKE1PwQpxTI2QEqKSuKioyOV1xdba/Oke2d3NNh7sCkXi8ayTKazzPWGxyEdsyZMXU6KS5kQgoqTf6yVtfX3aPRVcfCkpan8/1yFJ4x+L2ztwi8aZGHAtHKOgRDo1NEMHTMrrbisQnkl7Nm5TeTB35aqgfDjqWsf5ReXvwybhIienOxsDSFOU62ByZ0gpGmBn5e3XFsS+stX/i3Kyc5NM+YJUlxcFB8TFaU0Sff3do84e8C0RLyQzkhmmtvpBQg5/k9nrgxPSctQXllauzqHXz78U6P1InNW7oqMSXim3LTkV/7knjWorZ8HZR8Z3QBBSYRC9uzIqcs9dx08p3rAn/hjdUGHNp6q6+TH0354lF9UqgIIQcCBWTlZYU0FiLp0TREgQFckkxP/HEuqrKguayqADHy3S9iuDXMb9IVsjoViWjlchJA2UV9fwWFRcd+t+k31mF8wfWzs9E9HNcro8tj5O0l/HL6kOlX9vNxizv35A2WtPcayuslgmdXoOUoBgUcrZGJrXCZSPtolUhl4/7MVHIn0Rars1q7OkZcP/6Q6RT6e8UN4fkGpCugIYcMzszPv6uOFsX43TYB4eZ8CAHxed5I7d+0Md3JyZJ4+c75RMvnadIuLiuJjol+cIEMHdA3btnaOyQEEAFREN7cLptGZpD+ETpN5BEDkuCkLrTjcPNWJs3rB508nfTjQYLuywpJy8NHUddUIIdJwUFm+/3ZyzmcfD6Js+wUhLRbSaGaEQu4FANLQYW3cdfzRlaAI1Smx/5fFCX26tlVaao+duf5Bbn6Jyg+kuSMtmiRA/D29f0EQrKoLkBUrVtwZMHBA24MH/1YeydzMrMj8glxcKBBZK+RyVwSQBZ1Gy2GxzcptbKxFbdq1c7Mwt6hX5CnkC1JDQ4OVgR769XonbM/GBSYIkP84AbEEjM5+DulMOcSAVPlXhDAMILZcKrBFODE88kla/vy1u0kloioO0qr5k2M/+WiQwSfJrGU7wuNSXlzdyGLGZuZePrzJw9FOhRlDPtjVhSUVSYdO3xAH3o1oLatllGhjaf74/vkdyvgC42dteJCdV6wCCETw04zsrPOGdGhIG9MEiJfXUgTgjroT+vLLKUHDR44YsXz598GlRcWdEEB6Axuz2OzYdm3bl7u39tBqFAcB5F8PvKoU85riG8SQRV20Ye+D8KhkNe+7m8d+kTg72xoURSUyLo07f81utdyDQ/t3S9u2brY+fYvkfOCDkHPXQthFpeXmQpFU9N98SK05uXakclarh+XvP85LfK9P506TZv8UkpVT+NJgEaApmTweecNolmKSAPHz9p5KxmStywEHe4eisvIygyQz9nb2Ee/2769VP3DzeuBzhFAbKwvz5JALOyg9iJtldQzspKS0kryaxEplctWpsfSbicFTJgwzWMs+/IuVD8srqtWUfdt/mFM2pF9XnV5+e45ejjh69naDdTJO9rYPb538RdnXlwu23E/l5Kj0LwiCLzK53NMGsqbBzUwSIL6evh9BSLxUbzd4WtobYDQsY9CgIf5mdSzZ7wbdfiCTycgvriT25gGDvrJGGqJWMv/efPjgn0t3GL5ersIOAd6gU3sfdoc2ngHmbLaG2UVOfkn5+u1HExOidaa5AAAgAElEQVRSM9X0IEP7dw3ctm7OR4aO896DJ0nf//KXmgjcxsoi5c7prR10KVY1jA0pdG5rbZ749/bvfXxat7Ikq89cvuNufHLGy5CkEHzO4XLPUCBllCqmCRBv788hAk1yjEIIs4cNH+HJYCqdB5UlPv7JlfzcPGX+jlP71vDa+rY2qcgjAyctvicUSjUsdWk0rNjK0jy/Zh4KBY4LhGKtb40vxg2+vGzOZ+Mas2vGfbMhOCe3WO0UGjO8X8yGpV9plWqJxRIw+NPl6QoFrlfRCSEUDRvQnfvrmllq5iwL1u65E/EkRXU9fuvfIP+F/CFtsRp01WGxWQVmTEYpAgDxBQJHgtAt7aHT6YkjRo1W2XNVV1WHhIe9CA06/bNRjxZMG2tQcs7GbL762vYY/a0AAKT8ohpaflr2deRHw/o2WBNeu7/YpOfc2St21s2DLj28Y3lVlw5+Wo0IU9K5UV8v2WaJEKHVjovBoMeOHtKH/83no991c3HQOL2///l/Qfcexr0M3oDgJxnZWWqJWw3lCZV2JneCaMt7rm0iNlYWzz8ZO6JsxJC+nh3a+WmIPp8mPnuyctMux9y8Yq2Wv45OjkG9+/RVMh4BJLkZGEh+iX19PFwiL/y1oVEbiQrjG1Kn/7hFcRKprMEBtGv66NLO59bhXd9rDcLXkHGQdZdtPBgUEhGvFmDa3s7qwZ1TW3WG5KnkC7LOBz6IvXrrkSMBEM21lT3o1NYHfji0j6W/j3u9eSZ/3HEs6NrdWtFNEByTkZ1l9Ou3Lj6YFEB8PT3fhxCrVwnEYDBKNq3+tvKjkQMp5er7aevB8PNXgrRplKXDho+sYLKYSturkPv3LotEonEYhGXRN/Y3e3iZ+jZqQWFpwvjZPxXJ5Qqd7qm62ru3cgi7evRnY4quxf3HLYqRSGVqNLu29ws7tHO5MftRTmnr/rN3zl4LeelV+DYrCn29vHdCAJboWmwXZ8e0i0e3t7OxaVhA9B37jsUfOXVV40vl7u4e0aVbd6WUJT0l9SInM0OprT6zfy2vjY+HSb1DAADPNv9xKjHw7uMAmVym19yfxWQ+XTB9jOyLce8bL6nmfwvzMDo5auH6vaQiT+1KNHZkv8T1i7/SO7aGnFp7j16+d+TsbdX7CwLUL4PHI6PeNEsxrRPEyzsSAqA1ALWPpzvn2uk/KKf3qsu9YePnpBUWl6rJ7ek0Gm/E6A+UQCgrKYt9/PiR8oFriu+Q2vMpKqt8lp1XzM3iFpYXlpSxS8oqrCwszSUuTo7VPh5OtLZ+Hp1cnB0MinJPddct33jwUnBEvIaV7sIZ4wqmfjKyXtN8qn2Q9fYeuXzvyLmXACEw2DUrK+tpQ2g0pq5JAcTPy1trNBN7Wxvu7Qv7vet6tFVVCwCHm1se/SQxTUEg2XvvdnPu3KGN1sdgajqH+8mM7+s+MMHwEaPyGUyGG7+aLwx7EKI0g/D3cYs4u/+HBsvvG7MQr2FbyZBJSx9XC8UaZvU71s8TD+7b2SjZsjb/cfLOpZvhL6+WOK0NJ5eT0Vz8MhmA6Ha1BaKb5/fntHZrpSYqvHY79PHOA/8wS0rK1R6vDDo9Zv60CcUzpk7EMIxOSsJUNkNjpiyKz+Tmql21unbrEebm7vZealJKWBaXo7xDs9mM5w///YPSG6e5FsoU+0lIzeTOWLrNHgGgZnNCp2Giq0d/Nm/l2KCEwFqnuPrXv28HhcYqExGRBTLozhkZGSXNxQ+TAYi/DvOS8R8OubFpzQJVUGmSMflFpUkjJ8x1qc/UxNvTJXrdd1P8e3R7J5XBtpICiA25FHg/fP0v+9Qe7BaWllkETlSLxeqZVmNvHmiuNXit+zly9lb03qNXNN451pbmpcHnd+g1BdI3+e/W7b3zKDZZdYK8tS63/l4+FxBAdUy6kSAu5FwJg0FXRT38f2NS0YhJ8+7nFxRT0gr/s2eVpL2/FxujM1MAw6yw+5Ap3Wtne9K1QFePbCpxd3E0KLuUvkV/035f99vhuzdDojUScLq7OuZfPbypUQG7Zy7bdi8+JbPmkV7B4XEbHVS8Ifw3mRPEz8tbI9xoG9/W9/498buaBvnGnbBb3//4+yhPd+fkhdPHi37/+5Ikt7BEp3jRzsYq/caJLW2ZDLqSLzOW74x9mvxcr2Xr7xu+TXrv3U4m5V3YkIVt7rqfz//5xrPMPLWTnhxDz84BnIO/LTFYuDJ53s/Bz2uyTUHwnMPlqvzTm2OOpgQQjQf62mXfpHw+YZTao3vqvHWR/t4uLt/P+1T54F7208HzIZHxn9THrD7d28Xu37xICYrDp2+F7Dt+RS2hZt229rZWT68d3hTANmMZ5aHZHAtpAn2IR01Z9bikvEqDt1PGvZ+0dM4kgz42Y6evD3v5AYQPObysRntJNoRXJg2QM4e28jq281PTRyxesy35t1VTVWYo745ZECeX48qHurOjXezksYOx6mqR8J9Ld50U+EsboFN7V4va+nmaZ/AKOJ/N3aj1i8ZmMTImfDCwYNnsSUZXeDVkUV7XupXVgqqPpq7LEkukGjqnX1bOjB0xuKfek7vu3Id+uiKmiv8iaAMC6Hwmj/dpc/LHpAGS/OgiHyGgphVECE+X8cuUEq3issrw0V+uVn5RaDRa5cX/bbBt7fbi2ZCQynk2fel28pRRWiV+/cmIhEUzxiu91CbO/jFTIBQLbKwshe6uTtKeXQLMBr/b2cvdxdGkIpo050YwVl+pGdklUxf9huPEy7yMNbR/XT0rZPjAHvWe3nXH0fvD+VycIJS3BYjA7xnZXJ2KZGPNoTYdUwKIBABQO3AYSgy/UAUhVAsQoJCKUnCpQHntuhAYevGXfWeUD/u+3Ts827v5O7X76fy1u0Min6QpF8TL3Tnu0t8/GWzP1BTMf1NpBt6LzNyw/ZjW4OIbln51ZszwfpMpzl3YY/Q8UltPe1EfLefweBqOdBRpGVTNlABCJu1USzkQfPVQkpODrdrdVS6qqiAUUqWAfc/Rf88cPRukZPbWNd+Uvf9edzUbqoLi8pKPpq4lI6S4YRBWR9/Y3ygfUYM4/JY22nf0Su7hs7e0Rm0/sGXhod7d2s/Ux5qcgtLn42b88FIfBcFkDpd7Vl87Y/5uSgCpBkD9OvXPwc33unZspybFkvFLAPr/RBFkWb/t8Knr96O/IP+tS2/x7Zo9Vx7HpZC+HtWxNw+0AMSYu0cPrbmrf0+Njk/XZvLCPb1vLSPA18O9PhIhkQmRy346UMuyGvXn8HiPmnEKqqDAzdmn1r78vLzJfAY2tX/cuOrbixM+fl+lG0EIlcj4JSrdxJxVu07GPH02hYZh/Kjr+7RaMBYUl2d8NHWtOY1Gw6MC91KOxPHKGdK8AyhhWDg8gDTMRy6sLEa43Cim8QKhGIyZ/kNaFV+o4bv+6+pZ94cP7FFvKNP/nbh+9+CpQJV+BYfAlcvlFjYna0zmBPH18o6DAKhJP77+/OMT3y+Y9lUNQxCu4MiE5SoJ1NYDZ/4+ezV0FpvFLHx4ebfOB/aGncfOhjyK7xJ6YZe+IAPNyXuT6YvGtrlAZ7Im1QxIIROH4xK+UcSpoRFPnyzd+Gf3upPduu6bh+/3715vHnp13xMk+P/3R8PMuI3AYZMBiL+n9y4EweLac2rfzv/q+UO/jan5GyGVcOTSahVAEtOzrk1bvPVjCwszzoMLO+tVRv22/0zyym8nN8hL0Qj8fR1IlLJtWhUjhFT6JghhsqSqiEwAaYwswvweo+fV3djSyGt/FDPojHpP9DHT14XlFZbViNxjOTwu5YB1xmK86QDE23ssQuBy7YlBDOMlhp1X6UEUYn4+LherTBcgAPndR8+T29lYVd09s9UYi2ksvr42dDCMeY1haavMHFy7yESVp5FCphG8z4CJVfQYPU/NatHO2uLm3bPbtWaVqk2/14fzswmCqPEIPc3hcZXvzeYsJgMQDw8PexaNXlZ38sf2brrRo1sHpQmDXFRZTihkarY4Y2duCBIKxS4tADFs29DZ1idoTLbqGktSgQDekQnLrAhc0WjX46cpmY9nLNum5uPz1YRh/y7+ZuL4+kZcWS3Iff+zFSop2KtI4PmCFyZU/L284xEAamEye3Rpf/zY/p+/VgJEXFVNyKVqkqjU57zEuat3s0Iv7GxWGx0TYpvBQ3mWlSfp2LlrJITwZWA2XH5WJqwgH89GMdT8ZuWuO08Snqm5Cl8+9FNOazfneq9X1+9Ghq/fcUz1DoIQjMvgcq8YPFkDG5oUQPy8vXcDBBaqzQWBnCchZyRMJqONQsKvwGViDSeD737Y83jPpu+0eiIayJe3otn0Zdvu/LV703ALczb5paxQSIWPFFLhh8aafHwKJ2fmsu1qQCAtHqIC9+qNDr/i54NB9x++DA6BaJhXZmZmtrHGRpWOaQHEy2s8APBS3cFPHj/q9rrl34zEZcIshURY2/RdWVUqk1fK5ApbK4sW20KqC59bUJw/dsYG+31b12QP6tezUiGppONyqYa0iSq92vXuh8en/HH035KcvGINb0MHO5tnQad+1Xvaj5yyMqK0vLrGq7OKw+PqBZUhY9XXxqQA4uHhYcai0bIBgGqONnQ6vexx0AkmDeIZuISv1Vwkr6AUuLs22j9HH7/emN9/3HnsybU7kd2/mDQ6esXsCe4ErmiU3wbJmEs3wpP/OnldVFxeqTVQRO8u7UIP/LqIUuarnh/MK0MI1FhG3OfwuK8kxbVJAYRksq+392KIwK66O3HUsP63tv+4OEDKL9Vq4/PG7Nxmmsic73dGxyQ+72VrZRF179x2g9NJyOQKcPjMraiT/95ji8QSrZJEMsLK5lUzaUP6dqZk8p7OyU36YsFmVV0IwW8ZXK5GtP/mYJXJAaRDhw5MqVDEBQDUjYwhOnvot4QAT4d3CQVpXtVSGsOB8TPXP8nOL1FeqU78vrK4Q1vvBqVXLi6rKt9/7ErizeAoN4UC1+W/Lxv0bpfgnRvmqnzKqYx5/bYjd67fj3oZbvQVPdDJsZocQMhB+Xl6LwQQ7K7LTCaDkXP/8p80M0zW6OsAlYV6k+uMm7k+Lie/RHld7d2t/eUDWxbqjdtLZoM6dy0k8dqdCFFWdmEbBIBO91crc7O7v/4wx/nd/xLh6ONlSXkVcLJ/YWk0aNLieIHwpU8JQyF3TMvL01AB6KNpjN9NEiD1nCLAx9Mt89yf630xqDVCkDF48lbQ2HbgXNyZq8Gq95yjvU3kkm8mOYwa3LPmNKguLqssyisqL4x6klZ07c5Dj4LictIUqL7o91UeLo73Fn0z0XJov65q4Ul1MVUolFQfOnsLLJwxTim+F4gk+YMmLiFvDzV7M5PD4xrsstvYxTRJgPz3FpkHEdivbYK9urWP/nPLwgZHDBSLpdWnLt97+jA2mejWsQNr0cxxzgQufyvfNLGJzypmf7+r8XF5XtxDEgf0fCd12dzP2nu6OVGKrKjAcbDzfxcjLlx/4Pfgwk4rNpupFEEeOnPz3v5jV2s9yNEJDo+n1IO9imKyAFFetby8cgCAWn0K+vV45/GenxdQ1n3EJz+Pm7tmt7lcpnLDTU16eLE9KfvHpUKTiubeXBth3Mz1STn5JZQeznXHRKNhpe4ujoWffjhI9vn4oaSHp0buQV3zOHouKO3Pk4EsuUzu89GIdwN/WjJVFaFmzLR1YXlFKvsrgCD4NpPLfWUxmEwbIN7e4wAC/+pitI2VReqmFdOw/r061pt/YtPuU7cv3wpTeygyWcyCJ/dPu2IQPBJXFb+VAMnOLxFPnP1jNYET+rJ2yWl0WmyAj0fx4D6drfr17timQxtPrR+u+sB9+vL9hIP/BNL5QrHSMJJGoyVHBe4l35PKk0wsllYNmLCYTMmmcpwjMNglKysrobk+GnX7MWmA/HeKbAQA/lAfg8xYzIzhg3oWffh+H/vWro5OrZzsHflCceW1WxFP9x2/3Eoik2uYuQ8f/G7Grs0r/Em6Mn5ZNkK41jQJr2phqPYb/Che9l7vzjidjhmkJQ0KfZIZ9jg+i8FiKJgMJm5txWZZW1iYWVlamFtbmJk7OdhYdGznQ1rjGuxsduby/eADJwLNBCKxmm3X3K8+evDNFx+q0ibsP3H17qFTN2vF13o1Ju61eW/yACFvuH5e3tcBAHqtP6luKjMzdsX9y/+zs7J8cSuQiyrJpPYGXTWo9tmU9QZOWprKoNPoQ/t2lYwbNcDvnbZeaq7LTdm3LtpxSc8Tz1wN5TyISLCSKeQaSj5bG6vIe2e2qgGmrvQKQnAng8ul9Nhvqjm+DgABnVu1shCyzcisU1oDUzeEOWZmrLx/T+yy83BtpdpEcrHgMSEXUX7PNKS/xtQl05JhGCMDQIAIhMwQrgggg9/ULecCQ9N+23dGdUqSsXE7tPXOe39ANzhyYC8PJwebJs+7SIppo+LSeLdCovNinj6zlcnlOteKRqOl//PHKsvaLreZ2QUZn8zZqDzRawpCYFVmNve3xvCwsW1fC4CQkwxwC3DEGbITAACD3UHpdFrZ9dN7Re51LEmRQhwuExnHg66xC1LTHmOYRTHMrEix6stkigAKAKF4KhNX+KM674ZP522M5XALtMadYjIZ6S5OdkUBvh6gvZ8Xs12Ah7W/t4e7o521motzQ8cek/As+37E05yIqCSYW1jiTxBIr7IRQpj6z+5VRLs2nmrOa3Vj8JJjgYh4JyM7O6Wh4zJm/dcGIDWT9vX0Xgkh+NUQJvy06tt/J378voYfAqGQRcpFlY32fTBkTLraMK0c4yDE6tqd4bhCGqYQVQ/WdpJMmb/5XlpmLmWbJQiA0IzNyrOxsSx2drApZTAYdAihGUEgc4RwlkJB0OU4TpNLFVAsleJiiZS4cnhTF3MzZXQmXo/R8xqUZAjDsLTju1YI2wd4awC514fz8mvnlUQAZGXyuK9cBP/aAYRcGT8PP39Ax38ACFCWjzMZ9JQnIWe1H/uISJLyS03qDcKyckwGEKv9lcVlwkoOwmX1WsLOXfVHYPTTVEqBvQ0B9JXDP+V7uDqTkqe4HqPnUY4zRqfR0o/vXklr69da7RpFjqGu7wf5NwTArkwed6khYzRmm9cSIKrTxNfXE8OJVQiAKfqkLGZs1pPoe6e0mnMjgEpl1SUmZQrMtHSIgRhN5YONFJJwmaiaUiCFy0EP437dc4YpVyiM7oN/eMfyJ106+JF8vNdj9DxKp5Wri/3d39d/28nfx12rOHn45ysjyyur1U5wCMGQDC43xJib3RBarzVAak2Y5u/t/R4CYBxCYAwEQMNnhDyykx9e8AQA/helT51dUn6xGCBgkKjUEMbra8O0sAuDNEZNwAK+lF9Mrxnfwh/2pmZmF9LsbC2FJ3av0voV5wuEwvXbj6WHRyf7EQTRqLdG7bH+vHxa0Oj3+4wAAN3pMfrbepOK0mhY2NLZn4gmjxms01iRVODOXL6z7hyq/0tzQAaOeKXlTQFIbSbS/Ly8pS/DVap+IuJCzj1jMGhaQ//IRJXJSCEz+hfX0NWlMS0j6WzzF19VRERJ+aVKk/TUZ7yiLxf9qvoS//z9NO7oIX00UsvV9FvFF4JbwTHP/r0dXvk8K68NQKhR5iXfzRx/Y9qkER8AAB/3GD1Xq+QPw7CsiaMHpKz67vNeAIF6H+6jv1zzqLisoo6iFv3F4fFmG8o7Y7Z7EwEC/Ly8kwAAGpt939bVDwb176k1n7dCJgzBJcIGBVY25kLUpQUxBpdpaafc+LhMHKaQ8FUR5xdv2H8jLCpRGcjCwoyde/3EFg8q3pR8oRgEhcTEXLwZXv48M6cHgVCD011P/WTk/YUzxg0FAKb2GD1XFTXRwtwsrGNbb8G73dvZfjSsb3d7W6vacZa1sio1g5f05Xe/kuuktg8JDPbJysoixfqvvLyZAPH0PgMg+Kwudz8dP/L++uWztUbzwxWyewpRJaU7dV262XklmQwGzdLV2V6vmJP6ikPAtnKqQBDY1QUISWPWip3n45KeK/OijBzYM2PL6pkaj199fUXFp1U94+Rmp3FyKvKKSphlZdWWYqmMIZMrMIUCxxQ4ziAIgkEQiAkAJDc8e/yofo/XLfqSDPhWfvR8UNzQ/t2sPd2c2wCAGuwSO3b6+ge5hSXqHywIEjlcrsmEcHojAeLr6b0eQvBT3Q3iYG8TGXrtsHZxLkJZUn6JxttF3yYjfycIBEZ/tSr+5olfu2KY8VjKtLRPgBi9s0IqCselAo0Hem2QjB3Rl7d+ydcNErtSmVtT1eHwCtI+nbuRlMhhan0guJCTnbWnqfptKF3jrWZDe27C+v6ePpMQROe1dCGNvX+6lMViag2aLBOUCRGBU7ZKrU2fDDLQ5R0/fOua2ZQkTZSmDwGAkCZFiBDpejsM+/z76xWVfGUkkqH9unK3/TBH53uEUp/NVOmj6evCCwrL6vJK+l8WWzKQuUmUNxIguoLQkRxfu3Tmhc8nfqCKQ1t7FRQSURIuExikD/lx54k71+48Gr77p29TB/TupC2ieZMseEUlnzP8i5VWCL3QYrs6OQRv+n56QLeOfvVGTm+SwVAkGhmbEjd/3R4N6RsE4EAGj/stRTLNUu2NBAjJOT8vbzJ8kIbW3MO91flb5/ZrzWlI4Io4uVA97zrVVYh+mv5k7qrfu9NoWOHd079ZWddYQlIl0Ih6wY+eXl6+6U81l9kAn9bR86eP9RvQ651mzQpLZRr9xy1KkUhldZS2SECTs3ye5T8jk7maTHlzAaLbl4Sb9PAimc1KQ9yLECqU8UsMTsPW56P5XAVOeLs62T8JPL7ZKDGmqO6Uhev3HX4YnTSjbn0PV8e0nl3aMfr37ODaq2s7cyrSLqp9GlLv8JlbwfuOXRmi0RaBRZxs7h+G0GzKNm8sQHr06MGoLC0rqnHGqc3E335c+teHw/t/o42xCnFVIS6XGgSSHf87f/fUv/eV/gxfTRz+aPGsCc3oiAUr+49bmCyRyupNKWBjZcHzau1cEeDbGnQM8Ga282/NauPjQb67NOYsV+BAIVcAmUIBlP9WKIBMjoulUplQKpOJxBK5CADo2qtLG0qKSLlcIew7bhEfaeYv5No6OgTExsaaXLiaNxYgL65ZXn8AAL/T/Kq2unTrwv4J2gCCK6QxClGVQWH25XIFv+/YhQr0Qhkn+2fPmoL2/q2bU7LEHTxx6XO+SFyvhttYX1waDcu5fGijo1srB0oWCGt/O3TnVkiMlrGh9zk83n1jjcuYdN5ogPh6+LaBNOKZFoZVJD26yAEIaAIBoWwpv8Rg78IlGw/ceRCRoNwELCYz896ZrW5mZqwm98eoNUf+xG9+CuHmFmqkNDDmxiFpzZs6NmLW5FE14UHrJV9UUpE7+us1drCO7/qrSO3cED680QAhGeHv5b0fATCvLlO+nfHp+W9nfqb1sY6LqrMUColBOhGhWFIxeNIyCUEQysB3rZzsom8c30ICsTl5ja/Y/L/r98PjVMmHGrIpqNQdM6Lv/Q1Lvq43hVotOmj45O8fl1fxNXRQCMc6Z+ZmJlLp81XUac5FexXzA25ubuZmdGYagEAtyjjp8hl+46hWpSGhkD2UiyrrvcvXN5m7YbGPVm75W/X+6NOtXfj+LYuMpx+hyMlj54MenQsMkRUWl/vrig5DkZSqGoNBT5v1xQdVsyaPpuyBue/I5TuHz93WuFpBgAIzeLwmP+kaOsfa9d94gCjfIjokWrcvHIhzd3XWtIYlAFcqKG6Uwm3Kd5uD0zJyVdKamZ9/EPHt1x9Tuo40ZkF1tBVHxafF3rgXVfAgOsG6qkpInmhU7LBKrK0tknt09OcP6N3Jpm/39u1aOTXMnCavoDR7zIwfSFcCDT95iOBnGdlZ55pgvkYj+VYARHnV8vYOQgiofcV69+h44/AfPymN/uoWhVgQi8tFWl1YqXBfJJJWD/5kiRAnkCrG8JZVM5+OHNRTLUEQFVpNUEec/JxXXlZWXaFQyCslMnm5TKaoZrOZtiwGw57OoNl7uTnbeHq0qhsfucFDGTJpWWy1UDsfEQ1rm5mZqe2N2OB+mqrB2wMQL69uCMAn6oxEggfXjyba21prfNkRAAmy6uJGGc2lZ+akTFnwi+t/Ui2ya9GxnSvyO7b3bbBhYVNtgKak++veM3fPXw+tFcanbm/wOw4va29TjqGxtN8agPx31YoCCKiFLO3do/OFw39s0Gp6gksEqQqZqFFmI8np3NSpS7a61IAEQlhx8X8bRF4erUzWFKSxm4psfzs0JmLNr4fIE7hW0AkNytUIx3pm5mY+N0afTUHjrQKIv7f3rwiBlXUYWfH41olYCytzjS8dQRBP5ILSRmvEE9KyUmcs3UaeJEqTcBqdlnvj2GYLR3ubRjkvNcWGMAbNB5GJMUt+2k/6eejVj5CenjhA/Xk8XoEx+jY2jbcKIH5ePusAQJvqMvHdnp2P/b17w1RtzMUlgliFzPC3SA3Np6mZSTOXbvNCAChzhjPpNO75gxvYHm5OBmntjb0RjEUvOj4tfu7q3WQoWL3gqNXnMwKDA7OyskjLB5MqbxVA/L28riEAtUX8qHxw/Ui4va21xm8I4WEy/stgyo1ZveCI+MfLNx5UiUcxCMr+/G1ZWY9O/npz9jWm3+ZqG5+SkTRr+Q5PhAwKU8oFOG04J5eT0VzjpdLPWwEQX19fGwxHhxBAE3Uxpa2/1/mLx3ZqVRwqpMJ7uFRokLdh3f6Onb/z4I/Dl2p70Yl+Wjbt+UfD+piCdIvKntFaJ/VZ9rOvFv/qVEsgYQitMgyCYc+53HhDGjdFmzceID4+Pr0xAp0FAOjVa1w4su1KuwDfsRqMhqBQLqiABC7XFwWd0hqt334s6Pq9SLWYsx8P6xv+47Kvm12ZSGnAeirt+N+FkNOX73dHCOkMcO3SY2hE+fN4pqy6vF7ROQSgHMfg0KysrKfGGFtjabzRAPHz8lkOANpGlUnOjvb376lK3xQAAByPSURBVF/5S6v5BMLxCJmwzGiKvnVbj9y5GfwyDx85Rltry8TT+9a4OjvamVSMLl3843ALMmeu2MrnCyT1nn4uvYfFW7duS4ZRBTkPrkSJS3L1JQ2thgT8KiMn6yrVtWuqem8kQPy9vPoiCHfXFelSYeLvm5dfHTa4r1YbJkImiZZLqhuc2UpXv3+fuvngwImrakELSDHwhqVfcz8e9i7lqIVU5mXMOhKpVLDy57+jw2OSNP066nTk0mckx9rDXy2FWmFMcFQ1L0UfSMh4R5s4PN56Y469obTeKIB4e3t70xHcXt9bQx+DIAR5V07syvD18dSSzxtJ5MLKUgKXNzh5jK5+b4VERa797Qj5BVaT+rT1a/1w78/f+dvbWhnlWqdv3lR/P3D82oMjZ28F4Jo+HWokIIZVu/f/WGzu7KF1/OUpMbGlqY/1WipAAA5n8LgzqY7P2PXeCIB4enra0SHtZwiQUfyZMYjlXT+3t6i1WytNHQgC0VJ+sdFOEXJBn2XmPJ+2ZCuQyhR10ylXfTzs3ZAfl00lY2K9UtfZPUeuhJ64eMcPx3G9HweMyeJ6DZvcimFmWa+ot4qTFFcUH6r/pIQgWk4QI7OzsyuMDQB99F57gPh5e88BCGymaHyn5AeNZRaDFApE4HKdG51Gp+dcP72n2sPNWTPaIsIjpHzjvUdqFmn2ih3BsUkZGtcWDMPSV8//PH7CBwNIuzGlHqU5Cl8ortj259n4m/ejOhIEcqLSJ8lb287v2dh7+FbVji2sq2117vOkwsdBVAJlJOAQjORyuYVUxmGsOq8tQHw9fQdgkNiLAKAsHqWZmUe69hzBNnd2Vz4Ys0Mu3ZSUFejMXAUhLFk678uH06eM08ghjnA8XiYsU9IxZgmNeBqzcsv/HOUKQkPqhmEwbvjAXhkr5k7saGdj3SgTmPrGnPKcl77rrwuFTxIzyHcCdYUfBqtp5jYcXFTtAgjClW5mmWjXprvQrk2nelNLVOc8yyiMukPFPi2fwOAHzSnheu0A0rZ1azcFpO3UFjlR16IzLKwfuvQeZmlm76oBJu7tk+EyQWW94lU3V6fQUwe3MB0d7NWkWEghT5OJKrTG+m0saJZt/PNeSMRTnboXezvriG8+/0Dx6ceDVCFJG9NnemYO59L1BzmB96KcNSOONIYyAAxz63Sf0V/Vm2i1Ojs9rzD6LhX7NBEC6OtMHu9i40ZFrfVrBRB/L681CMB1VL9qDCvbUJfeIyzMbJ10+pgjHAeca4eSCFxe7zGPABAG+HlGLpn7JRzYr8dLUTChSJYKyhsc9Lq8il96/HxQyoPIBHpRSYWTVK5wJJVsNAwrMGOzSls52QkYDLo8LYPXHQBoWc9yShztrVP6dOvAHz20l2Pf7h3qHUtlFb/iOTc/LzmdV538PEuWkJJpVVbBD0AINenVzcbnnYxW3QfXe0oIcjLK8qNuU/FTIf0z53K43IPUtrnhtV4LgPi39hmDMLQLAEAp4xDLxiHYtddwNtPGgZLeApdKQOb1Q5kIUaTPZGYMGdgrZ+iAXmbdu7T3aeVgV9CQ69buw5dCT1y42xUhRCkaSEOXF0JYTaNhfDqGiVgsplgik5nL5bjVf2kQmtM/Xm3oHu+NiTN3bl3vo1xUnMvPDbtMxpSs76Pwgm4zhCk1aYD8F3SBjJVEKS8h3dw6yqPfh1KmjX2Drx1yQVVl1u0TCgBgg5V0EMIqNxeHAicHu7K2vu6gR+cA8/b+nm5urRw0RJyHT9+6v+/4Faq+3A3FhknXZ9g5xzh0ek9g7eRSbxR9SUWxPPv+uSpqawG3cHhZa5tq4iYJEG9vbzYNobXgxXVKb6ExmDyXHkMLLNz9GpVnUFScG5cbdoV8/Or8yjKYjGK5TE45ijv5NccgFNLpNBGDTpcIRGIyGMQrT9Osl6n/VWAw6HlyuULv24AOYK4bHct2Z9AlXLnCpghX+BAIqoumMazAtssgV4jBQkevgHIIaToz4SrEAsC9fSqdwOX1vl1eHCRgRiaXe4TqnBpSz+QAogw8DRD5CFcLsqBtUuSX2y6g21PHjn215vxoCCNq6lY8jwstSXikRUn4okbQvbspvn5+HW7fuhV+4tix4tiYWFe5XE7pKmfIeJqzjRmbFe/T2jXvvV4dRT27tbVp6+veevrS7cUcXr5OfrRnMpLn2VrBfmy2xmYflVf4uBQn1II7WAV0y6VZ2Cp1KVbOHtfNLK2Vgbe1FUIhB9n3zsXLBJX6pIUSHIL2XC6Xa2x+mQxAyDTPBEN6RIc5usa8zR1c77r1+6ANxmQbNTAbAiCnMOYuzuelazVuvBJ4LeOdjh3VHptisTjh6pUrSWdPn5UUFBTYCvh8O5lM6ozjOOnrUe+jc7C52ZV5NhYufgyG+JpQzLosFMqSJQo/BUB6FXLaNoOVhVn+sAE9EoLCY7yFQkm9EjZ7O6vs3p3blY8a0tP8vT6d1UzuublF8Z/P38yUybTnO/eg01N+c7Qzb8tk6DQCFRAoe0R+AZIRQLVGdGvHGEu/TiqhCZNt/sjW1asrgFDnqVqSFBlckR5bv1kLAmc52dzJbyRA2vj4DCReWNzqdR6iMdgP3d8bI2DbOenMe2cIkwiciBfzy4TC8tL+ZI5VISc+RF5doXFXdnB0LD3491+FXbt2paLcEgAAyjI5HOGZ06fNDv99SC3W1hhzs8D1jnZaM9JyFPKCywJRdqhIYpmvwBskJXunjefjA78u6WNhxpbHJD3LFAolYpInTAad6eRg425rY2XjaKfT8BacvHz35M6DF8kvu0ZSHDoA5UvtbDmfWplTsibYVF55+4pApForCLBSm26D6r7zZI6t/cMwBlOnWJuf8zymICqoXi9FlsjcKqUkheS50corP0H8vLw2UXxrlDi+0/u2fbve4wBA+iUcFFmEK2QPBOUl1lJBlcYxLi3LeyjO4fgAhJNpj9XKlClfPJu/YEGRrYO9NZPJ0qus3PTjxuBjR4+ovoJMCLmPWrvqNcEnOxUhBC4IBAUnqgSsCgJRMjmh0Wkla+Z/njVuVH8KRoGqqZVPW7LtcWJaplblaTsm48leJ3s/WxqNsvQtDyfixuYVqkmurDr0rqCxLDTcjS3snK9Z2DnqjJNVyUk4XhwfpjP1N4SgbwaXG0lx6SlVe2UA8fHx8cIIdOr/r/V6AzwzzK1CPYdMZNLYFsa66wvlIlGkoLygjVwm1RdmFBdxUyNkFYUaykR7B4eCNatXOXXp2iXDwso6287e3p7BYJB3cY3rwqTx4+/Gx8Wr/N4/NrcI2eBo0+CciI/EUtGBqurCVJmcksjb3IydOPWTYbwvxw/7iM3WnTaQk1XwdNqyrSyRWPNaRgegYrW9XfpYSzOtQhAcoDiBApdJAWGLI2BDAOSAAGDU7MBJhWVcBXrpj2Ph3T6ZYeei9VSkM1mJ9m4+EGCY1hO66Mm921VZaVpvD1BBb52Rl5FLaedTrNTsAPHw8DBj0+krEQIbKIyxzKlTv0d2Ad2ME30PEc/E/MocQVnxEIQI9dRfegZDSKXZgqynZYRYqCHHD2gbkLNixXI3T09PMsV0Dg2j5THYTKEZ24xpZmbuzGKz277TvkOuXCZTvSv+aeWY1I7FpHJN0zqyAhwH+yurE4NEEi+8Hkel2o2ZDHq8o4NNqqOdNWFuYWZpwWZaYhDSZXIF/cHjxK4IAY3sWp2YzJQdTnb+9jSaRnQSGYHfryCItnJE1Cvl+qa4IrgEJ1SnJ8vZPcLMPaDej52di+cNhrmlZswyCPKfXdhL5kzUEMdzeFyj72ejE6xvn/l7+cxCAG0kEyHpAwfT2vaxx8DxdnSWeaP9tQlcESGsLCHEVRUGhxOtGa+8ujROyE11BLhCQ8rm5OiYM+C9AWjo0KEeAW0DVAAsLS4umPLl12pzjvVyK0IIGMWU/ViVIOYon+/IJxClK5s+3pO/t2HQY5fZ27j0ZLF0bf7EXLm0ExVav1QILj6WSFXuznQL24eWAd30roW5te19S0c3UgqmBtzs+xceSiqK6rbncHhcKvZcVIasqtPkAGnbtq2VQiJZAQAkTdH1mxEgVOrYeUCsfUDXRj/CFTLxHWFZsZtULGzQI5cKByV5z6KlxfntkY73EJ1Br+7QoUPWkMGD6SwWS7R16zbVoxYDIC3K000lYSIgiCnDFUxEIEsFQLYE0nxnQAAELAgzzCBWxcRoGB0ABwihmmj1j4qqh/8IRJ0IiidKffO85+ECbDDdh6wAV4RWErhO8W9t2jeFstMHq/mf1/wNYzDirDsO0G/mrgyRROfZuvvm0mh0FSByw6+Giopy6vQN73F4WfUEqaOyqpp1mhQgvl5eH0AAjwIAKJlKM8ws7rQe+qkVnW3eGIVflURYHSEoK+pFKOT6AWkY35StCIVcIMpMzFAINR/49ZE1x7DoBx4uKsAUKmRZCoQaHE3ekkaLtIA0nAFgAIAveFxGEIULi8ty0mW6TflrxsYAIIuBYZYigtBYn29srDLn2FjpfOeIcfx6GaHQqcOoPX8ujgcuLq5USesgAHk23YboVT7WpmHt7HGXbWmtBEBO6MVgcWmhmtgXAXgok5c1qxHLqbVpkwHkPz+NP6kO2Manw9FW3Yd8aqiWGSGUJq4qyRWUlxr9K6JvDrhYUCnKfZaHC6oonVRONCz8pruL8tFPQBSfL5PpU4TVOwQmhj1zojEQBECldU6RyXiHK4XZCXKpQyWBPGqdKuJxluZJ6+xtlQAtVcjib4rE/P2VwtbyWoEtXGj0+EB3Z53jkhDE2VJcrpGLXttAIQBRYwvKakvTSmy7DaH00axNj2VpHW3t6O7EDfqnXC6sruPMBn/g8LJ+1rdWDf29SQDi09rnPQxDD6gMBgHAdR/wcYRlK0/VEUylXU0d8n3BLy2gSYX8hogzG9IF5bq4TCKV5D5Pl1eVkhtVp8ioFY3+4Lq7s1L7L0dEeJFC3uhoJo50ZigbQq1Xnmw5DiYUvIjJ1oPNfHjQ2VF1XSEBIkGoawWBp88uqmTKAag5yfi92MynhQrCTIAQdKFhQjc6jejOZtp/ZmnZSY7QuSKFjPygUSml4wrKyL324kSHkGfbdbBBCl4MYtWViWFyQi5Tux0ghA3PzM68S2UwDanTJADx8/JOBgDotLOpGSCNxQrzGfEVC2OyGry55VLxPX5pgY9CKqEk7mwIUxpblzSRkORnxknL870hAhryfmc6LeSGWyuliLchd/n6xmWL0UItaXQNgFQjFPt7RZXkqkCkBEVHJuP2UReVkrUiVy5Vje+8QBJ8ki9Uu7owAShwotN59jRM1JpOBz4MBnukOYvhSqf55tXZpPWNb2JhWRqOXiROhRiWZtNlkEF+NEghB1WJ4XW7qubwuJR1Mw1ZX6MDxN/TswOCGAmQeou5q9e/Hv0+Iu+lKnm5vjYAgXKxoPKJoLRgIEKovqDIekk1RwVEEEBSmPVYVpTdGgGgUjY6YjDiloerUsxpDIBgEJS7/V97Vx7cVnHGd997tmRJtmQHH/Gp+MoBMYQ2tEBKhjak05ZQGKAcLZ2hadIyDEOYtAU6bWkLdCadtiQzNDBtM8xwtCE0DYQrCThx7DiOY8e3rTiRLMmOI1u2bulJesdu0UssLFuynnUYxn7vL81od9/ub/d7++33/b5vKZlzKhzAwqHOQz6v8QOfP8/K8RG+lunCyQDcaGWZMI8t5JB8eMwehkZLUYb/FhdEZCSZ+tOL+FYnz4m+ROeRcXubB2FBrYNkRre6bkNc52q0OWKd1ks+Y/9MGs5+g9mUkAYSbx2kXEAqyyvvhBC9H/vFeLJo/abTOeWrxF8PhpHOYx+f9Lsc86axxwNgof539Z3uwmxQ0Ok1BNH1aWmR8DsVAnJNBtXi4cHEbqcbN9KBNX6MZyZ/CA+ThHCwtWz5SgywbZxlfRzAYUfpJELmn447wqrPZmVW65+W5UYIAQbgko/nDGItWFMv/tG4o8mLkDB/hEzelrPmZlFUlZnzQw/rOhjbWMT5AwP8wyGzOeR0TvmTcgGp1mo3YgwaovUUUpm9K+54AFGKHFFfD8SzLR6rRRH0e0WVTzk6KWzQNzxwnLWNC3EgWZAYaCorElTQAOYbJjlu3h71mV3Lpch6JaQELlNrINj/gY+2nKQDShrjWQ65k2XLdTRiURDhCKNCiz94apfTGz4PPZitOPOLXM3XPYhvcvLcKijSGhkNtvstthMsAIL6RipUZ7NXrp+3Wh2q69ad6UEBf8S9LZgkNENDQ64UTle4qdQLSFlZFSbIqAmIq7dsBURm/IA21u876Z4YXcVzXEocaekAbr5tMo6JM7SpTzBfQwwutlUUC195BuMmK8ekZGeUQaIvl6RoCsAbALxyL8cE4p2vOT29h7x0DXuVDPqUOrtxoyIzMkQAA+fDVoeeRijMtN2qzm5/RJXlm+9uMRMbDAB/j2WyEwAotE3lFdSrKq5NKNexq/PkJAZouhf9uMFsSqgtMXOYcgEJvbSqQmuMlgs3R7vyk6KvbJrzDm+OCTTaLw2lLL5DDAgLUQZx7Ki791TY9t9cVnRRBokaHuNWC8eI1uXF9BUC4JFD8oKcIDwcwBTCWP7LSUduV5AVzhPfypI3PqFRhjHGAIzunHC3DnFsxN3xj2tU3fcrFc4UCMjo3RabZuoKaGX1unMZ2Zq4SeNmjhUFaLtb1xpB1sQY7BgaNu0Rg0siZdIiIJUVK/4eNYkbBiO19z0+dyAURiar8XzKKBOJgJKuOs6uhhGAsTD+3fnLjm3Ikm3+LAtk7yjLiKJsJNOvJ6yurhGeE849EIBAGUXWl2YQKjuPvAaGv5GNQv/ZmaseeChbqRllg8U4iZfbEer6ybhjyqfi1qy7PTbXfo73BMZMrQGLMeJjwkOwIh2BUlPdSIuAXE2y8F60sS7/6iZddsXKOXM6TRh17rkyhScxV19oVddASzMOBgRz610q5aHf5anvwQAMj7JxGcVJ93ub1dE9waP5nuX8BQQxuFEh1+SR0LomI6OkIoOclwc81PGDHv97b3hpIWs+QclO5ay9JSG/j2fwXBNPu6ero/0GsylhwqcYUNMiIGvy16iCCtoTrQOkTNFddeejc06Uy3rpeNDrXnSJDejhCx8ztlEh1qKYIo8eLi4M8c08l9hgWlPu0Aj7HrXanUEM5r24o82hioDmQoqkaymKWimj8ksIUpNHEmAZGZ279eCYvSGAsWCIyFxW8rGivDZmsr65Fq2r88QQnpbZBkKwS28yPSNmoSdaJi0CcvUcchxctVrM7Jz2jodAZk7suJ+gz/OOa3wk6mU2iQ70y1CP9/u6POfPCqpGiLDYVl6sxQDIL7NBNwIJ3coUd1hDLNfxtM11DYtBzLgXjVpt3Lp96+SGWzcs9/v9WW+++Zbx6MdHVvMIzaK/x3shCYBTDqFDQUBPDkH4VQTE3UE2zK1TrVp/lspSzduChTjG6O5tjuSrYbTBMDzcHK9PyfyfPgEp1/4KQLArWueyCkq6y75xd8xdhOf5Rpt5cNEd1ENYuDobLuGr8eYnS4talQTxNSvHGJkEyIrxJv4jX+DDf7h9IZUkrPPfdNP6xry83GWDF/Ty6upKdvPmzXl1dXWzsrS43W7fjiefMo6OjqZUhdGsi3tjQtRhBa0jx/yj+umXDjkMZpOo6Mp4OM31f9oEpEarvQFh0Bnt5RhAuubu7QqCpGL0DTsmjOezMMbxbcLJjP4LqOsZbK/naY9gltyuznl7u1r1gJVjehiMk7qTfcZQgi/YXUfag1zEbVmlZWWn9+37Z9wIzultvbL31b7Dhw/XIoRSwlzIzC/9n6K0JsJaJmYaPLqzR/iAb1p+NPyGwWyOGX4rpk0xZdImIKGXV1Zoh+Dn5LeI/hSu2zikrrwuJo/KOTbSyNCeRbeLMLZLx+nhi8L5KgfCluNly2928GyLD6GUhBP7edDxc5uddvE44iAsk8nM7xw8AGSZsnmTBN0uN3j99Tf629vbFbTPi1xuT5h+olDndqzdtIUpqFldnJ1fVBj0OO3jhsGRc++9TfjdjmgpXx05q28yEnLlvK7XdnacGJmeCgpi+IB+2HhAzCJPpkxaBaSqouKPAMDfRusglZXdXfndH8dUs2iX8yOv7fLskMtkRvtlqIt4i7O7MRxdeKi4oEUDAeMSGXw01xB6GObd52zu6zCAUSPrXnjx+fr169dHdapRGVRDfkGRRqFU1jEMox8fs1iZQGCWtamjs6vj2aefERa3XJXd84MXX4m5802YDbrmN1+1u62WyOg/SJjUazfkQ5IUdcbhaXe/Z/BchNcfZlBqvV7vTveUplVAKisrayGPBmMNomrLVkDG8KwjlqmfHNGnzUOabmDnat/Z09wL+Cu+j9uz5Ed/n6fOdCAuMeU8lFkQAP5lt/fdet/nYa1RP0okOfbv/W8htVoTkaWFoqj9FZVVIcuSwIjlOA5QFAUYhrlsHbcMB/2B8CG7selU94vPvyB82JR5yzrufW5P3J3g4pmTp1v+E6naEZmZPTnX3ipKraSHzx9jbJZp5w/8qcFsntPhnKr5TauAhDpZpdWejXVXoKbm+uaCug3RY5Mx7p8w6lZjweCzuB7afL6BsVsEsycF4cjJkiLDBM8kxMdy86h3h93ptXOzOFcuuSrbEvB6ImjlpSWlHfte+1fEotZWVRtIkhTUpm/edluPXq+/Ti6XT7y0Z4//e1u2aFmWtY5bLuuDgcAtR44e6X/pr7uFr7mmqKT1rmd3iWIB9B473NT54YEISk1mQdl+RUl13GRvrp6mdsxzYXUNQ/DYkMkkOhgvmdWTfgEpX/EEgDiUgHrWAymqt+b7P4vpRXZeNuqYgD9tF8UkA1wydTna3ecdPBe2Dv05P6+vloLzthad9jNH/uL0XI9meMGVak3Xt598Tk3JsxQHfvMYAghHJIzYtm3bJ/fdf6/wBZbLsw6WlJcLCRXeOXDAsHPHjvD5orSsbOB0a2s4rodhGNPLu/d49u7dK8xZvrbq9Hee+oPoQ//Zg69/er7xWDjiU15SdUJeUD7nzokRD1zdkbF3PATLF+qmqbQLSHV1dT5mOWvEgoKgCWCQEoJeMgv1C6+LYS+AeO1aWWbb83nZounfA0GueZ/HxxlYbnqAVMjvtOicq4Ag+gBCIXrO1YAo2GwwGxPyxCcy32kXEEHNqtB+9BkLO+w9xQB0QQCSisNOZLBf1joUhNYTJYUeG3+FTBjjGdvv9Xe/7wsU+xCaveti2AbglYCkRfdAcAFgIKR/ggDv1JvNf1uoMS6IgFRWVDwMAXxralCSgMyYXgzb9xYuqy0m8UwSn87Mc7rXnLSqO8jciCG8BgKgwwDMUjsXNabTBCTd5MSZgrcgAlJXWKj0ybPCSYUxBE1QUrFC1qepnbSDBKDo13lq0BYM9vYFuaCV59QMxlUAwJnhpQPR4v0xho0Q4kXnN4IQdGEshGWHDAOdBrMprtUslbvLgghIqMOVWu2jBLiSBh9hmA8wDtuw45iprvQxTiEssLhFPjiUIUfUI7acqMaiFoIQQQQyAQFERcQhHhQACIQzHYSQAkDwcKe/n4mPMPmaCMghCW0YgDMGk+lI8g2Kb2FxAyseB6mkhED075eEi4SAhEBsBKQdRFodEgJzICAJiLQ8JAQkAZHWgIRAYghIO0hiuEm1lggCkoAskYmWhpkYApKAJIabVGuJICAJyBKZaGmYiSEgCUhiuEm1lggCkoAskYmWhpkYApKAJIabVGuJIPB/QiLK1jNtJEYAAAAASUVORK5CYII=;" vertex="1" parent="1">
          <mxGeometry x="324" y="232" width="80" height="80" as="geometry" />
        </mxCell>
        <mxCell id="oL7Sl4MgC56TpXQjwD5U-16" style="edgeStyle=orthogonalEdgeStyle;rounded=0;orthogonalLoop=1;jettySize=auto;html=1;entryX=0;entryY=0.5;entryDx=0;entryDy=0;exitX=0.5;exitY=0;exitDx=0;exitDy=0;" edge="1" parent="1" source="oL7Sl4MgC56TpXQjwD5U-13" target="oL7Sl4MgC56TpXQjwD5U-15">
          <mxGeometry relative="1" as="geometry" />
        </mxCell>
        <mxCell id="oL7Sl4MgC56TpXQjwD5U-17" value="N" style="edgeLabel;html=1;align=center;verticalAlign=middle;resizable=0;points=[];" vertex="1" connectable="0" parent="oL7Sl4MgC56TpXQjwD5U-16">
          <mxGeometry x="0.0714" y="2" relative="1" as="geometry">
            <mxPoint as="offset" />
          </mxGeometry>
        </mxCell>
        <mxCell id="oL7Sl4MgC56TpXQjwD5U-20" value="" style="edgeStyle=orthogonalEdgeStyle;rounded=0;orthogonalLoop=1;jettySize=auto;html=1;" edge="1" parent="1" source="oL7Sl4MgC56TpXQjwD5U-13" target="oL7Sl4MgC56TpXQjwD5U-19">
          <mxGeometry relative="1" as="geometry" />
        </mxCell>
        <mxCell id="oL7Sl4MgC56TpXQjwD5U-21" value="Y" style="edgeLabel;html=1;align=center;verticalAlign=middle;resizable=0;points=[];" vertex="1" connectable="0" parent="oL7Sl4MgC56TpXQjwD5U-20">
          <mxGeometry x="-0.2" relative="1" as="geometry">
            <mxPoint as="offset" />
          </mxGeometry>
        </mxCell>
        <mxCell id="oL7Sl4MgC56TpXQjwD5U-13" value="NEED&lt;div&gt;CI&lt;/div&gt;" style="rhombus;whiteSpace=wrap;html=1;" vertex="1" parent="1">
          <mxGeometry x="444" y="232" width="80" height="80" as="geometry" />
        </mxCell>
        <mxCell id="oL7Sl4MgC56TpXQjwD5U-15" value="DUMMY JOB" style="rounded=0;whiteSpace=wrap;html=1;" vertex="1" parent="1">
          <mxGeometry x="571" y="172" width="110" height="40" as="geometry" />
        </mxCell>
        <mxCell id="oL7Sl4MgC56TpXQjwD5U-23" value="" style="edgeStyle=orthogonalEdgeStyle;rounded=0;orthogonalLoop=1;jettySize=auto;html=1;exitX=1;exitY=0.5;exitDx=0;exitDy=0;" edge="1" parent="1" source="oL7Sl4MgC56TpXQjwD5U-19" target="oL7Sl4MgC56TpXQjwD5U-22">
          <mxGeometry relative="1" as="geometry" />
        </mxCell>
        <mxCell id="oL7Sl4MgC56TpXQjwD5U-24" value="Y" style="edgeLabel;html=1;align=center;verticalAlign=middle;resizable=0;points=[];" vertex="1" connectable="0" parent="oL7Sl4MgC56TpXQjwD5U-23">
          <mxGeometry x="-0.1385" y="1" relative="1" as="geometry">
            <mxPoint as="offset" />
          </mxGeometry>
        </mxCell>
        <mxCell id="oL7Sl4MgC56TpXQjwD5U-32" style="edgeStyle=orthogonalEdgeStyle;rounded=0;orthogonalLoop=1;jettySize=auto;html=1;exitX=0.5;exitY=1;exitDx=0;exitDy=0;entryX=0;entryY=0.5;entryDx=0;entryDy=0;" edge="1" parent="1" source="oL7Sl4MgC56TpXQjwD5U-19" target="oL7Sl4MgC56TpXQjwD5U-29">
          <mxGeometry relative="1" as="geometry" />
        </mxCell>
        <mxCell id="oL7Sl4MgC56TpXQjwD5U-33" value="N" style="edgeLabel;html=1;align=center;verticalAlign=middle;resizable=0;points=[];" vertex="1" connectable="0" parent="oL7Sl4MgC56TpXQjwD5U-32">
          <mxGeometry x="0.2857" y="1" relative="1" as="geometry">
            <mxPoint as="offset" />
          </mxGeometry>
        </mxCell>
        <mxCell id="oL7Sl4MgC56TpXQjwD5U-19" value="OPEN&lt;div&gt;REOPEN&lt;/div&gt;" style="rhombus;whiteSpace=wrap;html=1;" vertex="1" parent="1">
          <mxGeometry x="571" y="232" width="110" height="80" as="geometry" />
        </mxCell>
        <mxCell id="oL7Sl4MgC56TpXQjwD5U-22" value="MR CI JOB" style="whiteSpace=wrap;html=1;" vertex="1" parent="1">
          <mxGeometry x="724" y="252" width="80" height="40" as="geometry" />
        </mxCell>
        <mxCell id="oL7Sl4MgC56TpXQjwD5U-29" value="APPROVAL JOB" style="whiteSpace=wrap;html=1;" vertex="1" parent="1">
          <mxGeometry x="684" y="332" width="120" height="40" as="geometry" />
        </mxCell>
        <mxCell id="oL7Sl4MgC56TpXQjwD5U-34" value="" style="shape=image;verticalLabelPosition=bottom;labelBackgroundColor=default;verticalAlign=top;aspect=fixed;imageAspect=0;image=data:image/png,iVBORw0KGgoAAAANSUhEUgAAAQsAAACECAIAAAAIppm8AAAUuUlEQVR4Ae2dbVBTWZrH82U/9/ZW7daW1Ru2uvvDzK70ltZ2oba1U/sBZ8tM1RDtLYrpncVipmtL3KqemotOa9u+DKNMS6ZhtNtpen3XyaAQm5ZGEMT3iFEBo0IgYjSIMQmBACYkEOCs8aEPJzeXC+rNvRfuY6Wsc5977j3P+Z/nl/Nybzi6UCiKH1QAFZhOAd10J9COCqACoVAUCcEuFBUQUwAJEVMHv0RRASQECUEFxBSYFSHhsNgt8GsGFZjHCkxLSDgcjUZHY7Gx8fEJgv9QAa0qIExIJDIai41rVROsNyowpYAAIdFobGIC+40pjTClZQX4hEQiozis0nJAYN15CiQQEg5Hx8ZwcMWTCA81rUACIdFoTNNiYOVRgSQFEgiJxcaSMqABFdC0AgmE4AxE07GAlRdSIIEQoQxoQwU0rQASounmx8rPqAASMqNEmEHTCiAhmm5+rPyMCqSKkNpuK9dUklmTn16ZnV6ZnVmTzzWV1HZbZ3RIyQwta0l3uZIOYNnqU0B6Qmq7rZk1+XqzQW82ZFTlGhsKsuq5jKpcsGTW5KuXk9Nvkbtb1ddG6JGSCkhMyC77YSBhZ+sB56CbrZlz0L2z9QCc3WU/zJ5SJh1s5ZebTMhokJ8HjzWmgJSEAB7GhgIeG6ykzkF3Vj2nNxsUhiTYSqoXkPbtrG/E9gF5cGDK8rSTXPh3cnX1lAVT2lNAMkJqu616syGrnhuORcVlHI5FjQ0Fz8ZgCg+32rfHIWnbJuztSCCOx5mFxHtGOIPS1p7+0fQtnTZXWGlH5nn5khECcw+R3oMV0jno1psNmTX5rFGBdNs2cvvjyXJDLuL5jvjPk4nvX725upoM2BXwanZFIiGz0+lVc0lDCHQgO1uZIUqSY3f6uzKqcpt8t+EMzEkU7kaok7d+He9P4HNmIXlUQc+oNoGEyNM00hDCNZXozQaRDuThU88iy88WnfzAN9wHFYNuhGsqkaeeYqUAHh2/j/cYvkZy9f04Kv4LYpcodG4oMr68qEuXZ9fl2f/ncA+Msnr6R9PWOyzNA+CUpXkgbb2jp38UENp9tve1dXd1efblRV09/aP0csg/Yx5L88Br6+7SsZzNFdYXtNNDhWSQtVhpCHm2hptRlTud472R4JKqNT84sdoRfMDmyajKVX6gFXLFeej4/ZRj4yPk7LvE9l9TFnWkAI+csskVwpwyN8SuCCFp6x3Li7qGIuOQh8Z6YbWPUiSep+NJdHlRV2G1DzQorPZRB9ShSsq9kIaQ9MrsrHqOOhuIBEOxCByGYpEfn16XZv7Jucc3aAZIGBsK0iuzecaUH7asJaffin9sH8TL8nwXJ4Q337CvJ2fS42eHHKT27cn8/nMp9020AJsrnL6ls6d/FHLRUZY4IbRvySlz0+Cmt+JdK5insNoHmAGi9Iaizs6fk5IRYmwooKpkN25871ReT8gXmxjLbtyoNxuO3jtNz9JEVj2nACHd5fHHgne3Ti7s+s/HCfE1Uq/iiRu/JOeWTlratk3mj05+jybklPHA0jwAkQplzoYQdrGLF/0wWKI3gXuK5+E5IGPVlSxKGkJ4o6z2oOuHFe+/+83PDXUf6c2GwpZ9glVUxShrYiy+pHv1fTI+Mumk72ycmTbVPVynEwzwk04JeP0AzfZC0Q/3FCSEEJJT5obxFR1uCTbovDRKQ0jyTN3mv/tm+U/1ZsOHl343QQT+coqKZuqPKuJInH2X2NfHe4/qBeTSChILqa29gQSIURjwwLyCnZ9Ams4xJOlDCCE2V3jhp53sGE9t4qTOH2kIEVztPff4xtorRZGx77+bEyuhitVe+lKJ/0J8an4mPT64ats6iUefLdFl5Y9srjAsTOny7LvP9lIAqP21dXfXn/BITggLofIqyOuBNIQQQubeE0Pxl0r6bM/HWtM8cZe3kRQvjTeQU9wfOR2QjBDoRowNBbN56wRezVLycSG8VFL3TyTYMiX3kGMqTUj8hZT4hCTx3a2EHFo5oMtZWqkwU0/JCCGEwJuLWfWcyKND56AbXspS+M1FQuKvJD5JXGGrfZv/mlbbdo0TAuM3GLYxYaOhpJSEUEj0ZsMcePs9uZWT335PzoMWjSkgMSGEEN4vqLLqOWNDAf6CSmNxNX+qKz0hoM2c/BWu/xxR+rHg/Ims+VKTVBEyX/TBemhdASRE6xGA9RdXAAkR1wfPal0BJETrEYD1F1cACRHXB89qXQEkROsRgPUXVwAJEdcHz2pdgQRCcINPrYcD1j9JgQRCcBPDJH3QoHUFEgjBfQy1Hg5Y/yQFEggJhaLRaGxsbByHW0lCoUGjCvAJCYWi4fBIODwSCkXxgwqgAnxCoA/R6NcFVhsVSFIggZCREdxPPUkhNGhbgQRCcC1L28GAtRdQIIEQnKALKIQmbSuQQIi2pcDaowICCiAhAqKgCRWgCiAhVApMoAICCiAhAqKgCRWgCiAhVApMoAICCiAhAqKgCRWgCiAhVApMoAICCiAhk6I8euS9fLnl1q1OrzcgoBOatKpAqgiJWGqDazj/whVPXn/nyevv+BeuCK7hIpZaFerc2GgzmQ5xnIl+vvyy3OFwqdBVdEl+BaQnJGKp9S9c4dGleXRpvjeWBJat6l1q9L2xBCz+hStUxcmRI6c4zvTHP/65rs46OBjyegPXr985dqyG40yNjarbP0T++MASJSZkaNMuIGFwQ1GszcnqG2tzDm4ogrNDm3axp5RKV1TUc5ypuvpisgPV1Rc4znTjRlvyKbRoSgEpCQE8AstW8dhgBY21OXuXGj26NGUh6eh4cPHiTY4zffHFX1j32PTnnx8tLj7EWjCtQQUkIyRiqfXo0nqXGifCw+I6ToSHA8tWeXRpSg23Dh6sgilHUZHwFqTg/6lT8W7E7faIV0e2s+zehbxCC6t9ujw77OMMaV2eHT4a3JuTJ84rHkpGCMw9oPcYD/SHdh8kEwkbfI7ddw8frgR3Y21Ojy7Nv3DFK3r/Epdbrbc4znTrVmcgMCB+ucPxAEAqLCyrq7OKZ5bhLBCiy7PTbdGh0KHI+MpSl76gnRJCN5WG/XG0tgO6tG0hDSHQgQxuKALnRs43eXRpA2s/ob6OdXt8/7DE/8+Z1AJzEpm7kb6+AY4zXb7M7MxGHRJKdHV1W62t5eW1mzbtVhwSIGRlqYu3J62leWBlqWt5UVcyIXSjZ6HKoW1WCkhDSHAN59GlsdOPUMl+CsnYI4/vH9/z/v2/xu49oE5BNxJcw1GLDInr1+9wnKm3N/iiZe3de/zrryc7wBe9Vqr8QAhvX3MwHrL2IyFS6cy7jzSE+Beu8L2xhHfrpzu/jEOSv9n31r95/25xzMl/wuB7Y4nMA62XJuTUqQuffLKbV0GZDykhluYBurGgzRVO39Lp8EQFCbE0D8Ce6zK7Op+Kk4aQJ6+/07vUmKzL4Efb48u7f/VWzNGVfDawbNWT199JtqfO8qKjLOrJkSOn/vCHI/RQkQQlBBIwpsopcxdW+1gLO1OnExJFHJ4fhUpGSGDZKp4ik4Orv0736NIG/3cL7ywhpHepUWZCnu37TmfqfX0zzNTBYa83YLW2/va3X3377fnkKshpoYQQQmD7Zocnmr6l0+YK8wgBMGATdFzLesU2koaQ5FHW+BN/fO7xt4ti9x7AnGTwV/yNyeUfZYFYdLWXvmYyY2LPnr9EoyOvqPUrXs4S0tM/mr6lc2WpC9a1BAkhhOAo6xU1J4RIQwhvpj7e2+d/+0dxPL4fXD3dXhp/Srjlc+qxIjN1WrrT6b5+/W5dnTX+OVVdt3t13fE/xdMHP6770y8m7c/PXrx489atTr+/n16rVIIlBBap6DOQ6QiBbLzVYaX8n6PlSkMIf7W30er9m3+J3Xawogxt/Ezx1V7Wn6/ahjZcex73nu9I9QIyYCdjw/HEnc0kMPn048NLgU+uv/DCF1uKhGkeITZXeGWpaygyTggRIQQeieBY66UbQhpCCCHsE8MZvVHwiSH4dqdvJOObJ5sh+jtM5PSbcXvAGicEPgHrDX90scVT6QrPWB3MMI8VkIwQ6EYCy1bN5q0TeDVL5seFbCv++mr/YounY+D535i8njtJxe3fkL6mePrWrwghH14K5DT2sldhWoMKSEZIvK9//mJv71Ij++iQp2mszQkvZSn75mJDT+TYvZDFFb4/FCNPO8nV1fFP9QJy4xekMYNEnhBCvmobuvIk+lXbEK8KeKgpBaQkhEISX95V/dvv1/0jiy2eKQCAkOoFpOckjYCDHU8XWzw3/FFqwYTWFJCYEEII7xdUvUuNgWWrVPgLqg3X4gOtqfYGQuzrpyyE/GdD73+fxx/lspJoLi09ISCh+n+F2xEc7X2+EDTZ5tdzyaX/IBMJf/0eew/NAZFU4VQRklQQGlCBOakAEjInmw2dlk0BJEQ2qbGgOakAEjInmw2dlk0BJEQ2qbGgOakAEjInmw2dlk0BJEQ2qbGgOakAEjInmw2dlk2BBEJwp0/ZdMeC5ooCCYTgbtFzpdnQT9kUSCBkZCThnQvZnMCCUAHVKpBASCgUjUZj2JOotrXQMfkV4BMSCkXxgwqgAlQBPiHQh+CUXf7vKixRnQokEBKN4jxEnc2EXimmQAIhOANRrB2wYLUqkEAIDq7U2kzol2IKJBCimBdYMCqgVgWQELW2DPqlDgWQEHW0A3qhVgWQELW2DPqlDgWQEHW0A3qhVgWQELW2DPqlDgWQEHW0A3qhVgVSRUhtt5VrKsmsyU+vzE6vzM6syeeaSmq7ld9zWa0NgX6pVAHpCanttmbW5OvNBr3ZkFGVa2woyKrnMqpywZJZk4+cqDQW0C0hBSQmZJf9MJCws/WAc9DNlugcdO9sPQBnd9kPs6eUTUciUafzYUND0/79Jysq6q9caensfKisS1i6ehSQkhDAw9hQwGODra1z0J1Vz+nNBpVA8vDh488+O8Bxpg0bPi8pObp58x7Y0/D06cus25jWrAKSEVLbbdWbDVn13HBshr0EhmNRY0PBszGY4sOt9vb7mzfvKS4+9ODB41hsDILg/v1HdXVWjjMdP16n2bDAilMFJCME5h4ivQctkhDiHHTrzYbMmnzWKHM6FhvbseP/iosPeb0C+x+YTIc5ztTV1S2zVyLFwWaFr627a0vaOA72UIcd1tn91HV59hl3MIRNpdndQKEgXZ4dPrREyEntaesdPf2jsOMuNery7OytYGNrepbeircnI9Qa7g+1gAy8/eAtzQO0UBGhpD0lDSHQgexsPSDi3J3+royq3CbfbcgDcxIFu5GWFgfHmVpbE7Yjpf4PDYU4zrR37/Hbt52h0DC1K5iggcsLwaHI+MpSl76gnRJCAwu2+QT7dJ5bmgeeXZu+pRPCne4bStEqrPZBXLIRDLvsQkFs4EIeem1OmZuNaUvzAN2/F7aEh51KwTf2PjZXeOGnnfqCdvbrgM0wXXUkt0tDCNdUojcbRDqQh089iyw/W3TyA99wH9QBuhGuqUTyKs3yhuXltYWFZSMj8W9BwX9eb6C4+BDHmT7+uPTo0WrBPHIagZCVpS42muErfGWpa3lRVzIhEMc0XgW9zSlzH7L2Ly/qotl4X/AUDJqA+9hcYYhgXuAWVvuAYZ4drqJGejn1KqfMTeEvrPbBfagFasryRi9MaUIaQp6t4WZU5U7naG8kuKRqzQ9OrHYEH7B5MqpyFRloDQ2Fb95s27Hj65MnG1l/ktORyEhHxwOYlnz77fnkDHJaaODmlLl50Qwh/hKE2Fxh4I39RqcFQe0oGDQBdhriNOjBTglh/aRC0ZtMVwohpKd/NH1L5zPfeHfmHdJ7pjQhDSHpldlZ9Rx1NBAJhmIROAzFIj8+vS7N/JNzj2/QDJAwNhSkV2bzjKk+PHv22tateznOVFS0z+FwzbK4EyfOcJzJbu+cZf5UZKMhxQYKhLjDExXsQyzNA3ToL+gSjWYalMmjrJwyN4ymaHDTPMl9BR3XgbfJAzxaC5ii0AEhWylL8wDYeTdh8whWJxVGyQgxNhRQ/7IbN753Kq8n5ItNjGU3btSbDUfvnaZnaSKrnpOZkObmdo4zlZfXtrS0Uzdmk/B6AxxnUnYJmMYWGzfwPc1a2Jk6jT/BOrJXwXgMIh7sdHpNbwKEUDsd/8DsAux0FMS7OXWAtbNYsh0Om2Y7tzlMCG+U1R50/bDi/Xe/+bmh7iO92VDYso8KxCbkH2UdO/bdjh1fv9zMu7j40L59U9vkshWRJw2xBeMriBuHJwqjETbsaEhBQNPxWLKT8H1PI16XZ4f4Zgtir2L7ENZOAxcupOSwgU7z824CeVhUeBzq8uy0G6QF0bvJkJCmD0meqdv8d98s/6nebPjw0u8myERyTRSZqX/66RcnT55NdmY2lm3b9lZU1M8mZ4rysIELIbWy1MV+6yfPQ8RHWezMGEb/aesdluYBtiC2LrzgpqfYwKWjrOkm1nQEBZfDIcyjYF2LEg4ZWGfYgmjpqU5IQ4jgau+5xzfWXimKjI0I1kGR1d7i4kOVlQ2C/ogbPR4/x5lstsmlavHMKTrLxgoMiujKKZxKJoQdO/G8Egx3mHJ4gjF2aYteKHhJMglsiIus9sJtAXV9QTv0dbw6Qh663DyHCSGEzIknhuXltWVlFdGoMLQ0FHiJYHCorKxizx7z2Njkc3deBnkOedFjc4VXlrrge1eEEPhSTx5rCUYb9DnnO0KvQgiARMda7LyIzlJYxXLK3HQcRdfH2Ay0X2InPHRMyOZMRVqaPoQQAt2IsaFgNm+dwKtZ8j8uvHPn3ubNe3bv/vOFCzdv33Z2dXWLf65du33y5FmTKf5UpK9vIBUNgPdUuQKSEUIIgTcXs+o5kUeHzkE3vJSl1JuLbrdnzx7zpk274Q3F2fy/f/834fDk4rXKmxPdk1wBKQmhkOjNBvW//e71BsQ7kK6ubq83MD/YYIc6sHiV/KRC8tiaHzeUmBAYbrG/oMqq54wNBfgLqvkRLhqshfSEgIj4K1wNBtO8rHKqCJmXYmGlNKgAEqLBRscqv4ACSMgLiIVZNagAEqLBRscqv4ACSMgLiIVZNagAEqLBRscqv4AC/w9QM5sdHMhK/QAAAABJRU5ErkJggg==;" vertex="1" parent="1">
          <mxGeometry x="360" y="20" width="267" height="132" as="geometry" />
        </mxCell>
        <mxCell id="oL7Sl4MgC56TpXQjwD5U-35" style="edgeStyle=orthogonalEdgeStyle;rounded=0;orthogonalLoop=1;jettySize=auto;html=1;entryX=0.536;entryY=0.977;entryDx=0;entryDy=0;entryPerimeter=0;curved=1;dashed=1;" edge="1" parent="1" source="oL7Sl4MgC56TpXQjwD5U-10" target="oL7Sl4MgC56TpXQjwD5U-34">
          <mxGeometry relative="1" as="geometry" />
        </mxCell>
        <mxCell id="oL7Sl4MgC56TpXQjwD5U-36" value="" style="shape=image;verticalLabelPosition=bottom;labelBackgroundColor=default;verticalAlign=top;aspect=fixed;imageAspect=0;image=data:image/png,iVBORw0KGgoAAAANSUhEUgAAAOkAAAGsCAIAAAC3txffAAAgAElEQVR4Ae197W8UR7ovf0J/Ch8IUeCDT4IQGinS+YJQkCIdmijhrE3ABhzzIWeDIEG6cKwNE5yV4Lg3kLFZx9gbdCzL9vjsRXuxARkIL/Fih2ERJjgXvLFD7DHzwmAPtifjscdj3I6n7+2u7urqnu6eF79MT89jIab66arqp3/166efqq6qZxUHf4BAbiKwKjfVBq0BAQ64CyTIVQSAu7nacqA3cBc4kKsIAHdzteVAb+AucCBXEQDu5mrLYb3n5uamp6fD4XBI+RcOh6enp+fm5nBOEyZevnw5NTX166+/hkKhX3/9dWpq6uXLlynqCdxNESgzZpufn49EIkrGahxFIpH5+Xmz3cBvv/2mp3wkEvntt9+SKryk3O3Yu2rV3mvENZ9+9eaqVave/OopIVMnUZ69HWo5x3HCKVzhtb2rVq368JpSqFHKjKLnlz+vuDzCa9ZT+3Ftj4GKD2o/rkPnk+Scm5vT4Km+KCMDPHK5AmnbU/sx8SfeC8eh+3p++XNRZ8WNjVz6/PNLl2s//vzyc4Wc47jffvsN2Vo9fX/99dek9F1K7j4dquLptbHqKU9i7b9EjupzVyDrxr3XhtCdS9zFV1EDYt7jkUuf1z4Q1HtQ+/klgcN6yqbG3fn5eb1WN5BnYn0f1H7MM7WnNpGvFZdHpGdy5NLnQjbFXQncHdF8XPUsLql8JBJRVJdwsJTcFSrnGYYIeu1Dgb4f8oaYJ6iQSFAAGVfZNl/7UEwncFrkLjdUxRvzZOY88UI8vuRfgqnoqfs4sQF400KUSsK8xKvyEmy9Ri5XEHXhJKlJatxNpe1JHqB0UjZoqi88eIi7wv/Y1hLc5V8odWr7KnFXXevLly8TddOUGPu+S8ldnm0bq0T/QDS9b1bxVvNp1UaebQpOC/xbtbHqmuBXCM6GmG3VqjerOgWCfniNSzTh+BJqTJIcq6DkmUq+vvkmqa2tUDbAg9qPFa+8nlqSZ0kuKJ2WjBMn8jLRGeA5jQ1zos/AP3XEdTW9hZ9aPik69Z3EgJ9aDxcJf5+09ksy4Tc9z0F2BpJzl79bHi6dP0L/qakphU4hrO1pfAMow9TUlASixu+ScrdjL28RCcJhTxcZUZ6UogPAcZzkA4jcRVwWXA6OU1BWJKvA7EyJy1s/3v1SvK976j7GEnRWkYe3uIa+qQaeGiLJnPdInl8id3ndRHZq2F2C2UL109PTyrb/7nRR0SenTn+CudvZKlK2v/WTw60/Ebmnp6c1VNQV8ZcWIDLg7v/8j/AywUjiyhRgYinHqTzdn1o+Od3Jq6h8/HjJr7/+SpRTJ5eSu3zd/Av9zaoO8bUu8ZH4xZ6DYFDf/OqpRGs+j8obRl6HJMRWGdeGu3Hqu9I81oBSdObQa12wuARfZT5pVpeiELkcFZdHZE9X2e8R7bpE6ETuYrMtXTFxOIxv5/5WmbsyWb87reRuOByWqknxFylmwF2hDyrfHVGtppDjZO341E+tp/DT9d3pIrXpJapTJ5eau+r69Y4REXnyiX7tV5KTgEsgb4HnOslaZLmv7cXPAM6fLKHBXUwLBYnF17ciP/Z6cZcl2eXQ+Z66j2sv4UEGUaY51MDnfCC8dsXXq8hmhRpCBcq2l460uPtTyyeftJBml8+cmuKqXDqeLgEgb3cxSoLjUFuHx0wUtUkao1/y6fqp9XD2uItdXoGRb1Z9xQ847O0QyEewTbS1gkTkbgdH9u2UfBXtq5gTsTyjvpr6vSYZOdJ5kLxS4j2OkcdNhSVJEiOX6+TOuJRXMrHSsfiLlJFUkrrn2NOQcyvbXjpK4G7iKxhllStKKTVyme8DCNxFuiEQyP8FT1fGFt+C7C4rriRpjH7Nwl1kIHnTKBBx7zXBdqq5K3a/lIzkx3cFDxh5zNJgguQwCDcvFhR8BuJJUACjf5BgwLAfqXqJfyz2zwj/Qaw1be4K5dSldLiLhn5xw6sP5RtLxWf47lRRosUNhUJp+wyE8gonSpO7Dy7zQ7mqW+CkYWDpDpTcNYvPIA1jiSxUc5c3nBs//5wYc5A+QEierkRZ3Mnj77ejSnoYRE93b4fRoJsEkfpXyV2euKh7pGgSoRA2w1pjEegTg7pyo2Oi+VH1qt64OMKAqkhs+ISqE/pqAhkIu4t7P0qW8Edp9tUIIgpP8mXcp0Ra4Vt7UPt5Xa3YtZVvAdlsgbvEOIOqr/bdqaLs99XQO/3Nr56itz/PP6Xd5TMIoxCkNRU9Afm72rW94mCCZIZx30xK7BUdjLT7auT4jcQYbH0JjvBjPdIIg2LcRzmCRpQwSuIGFjPp2V3htNzwutk0x8jIvtp3p9AAmcYwWXpjZPyoreCF88QV751/njERpVvjn38pA2930V9dj2iDlZ22hDEyfpyE/1N2K0Oh0MqNkQmUfbNq6FrVRulLhMhdyZdVjCQQPbBEB0AqKLQnNuf8kegWK6oSSWHSH6mBJfXUpBQannysNNOKx2alvk0IX1USfCf+M8QD8ZMNcnPljiavu0JV4d0ljV4LEJjx24TUNvC77Ais3Dfh5bmVVJ69pF8BszVGtjyQ5FOt2p5DoocrSdL1FpYVS9PNxVnWu4XKExGAOZCJmIAklxCAuee51FqgKyDAcbA/A7AgZxGAvlrONl3eKw7czXsK5CwAwN2cbbq8Vxy4m/cUyFkAgLs523R5rzhwN+8pkLMAAHdztunyXnHgbt5TIGcByJC77e9uNu2/nG0LUDw9BDLk7hD8AQLZRmAVC3+AQG4iANzNzXYDrVkWuAssyFUEgLu52nKgN3AXOJCrCAB3c7XlQG/gLnAgVxEA7uZqy4HewF3gQK4iANzN1ZYDvYG7wIFcRQC4m6stB3oDd4EDuYoAcDdXWw70Bu4CB3IVAeBurrYc6A3cBQ7kKgLA3VxtOdAbuAscyFUEgLu52nKgN3AXOJCrCAB3c7XlQG/gLnAgVxEA7uZqy4HeFuSut7HYZvusC9rW6ggsB3e9TbttxJ8ejUa7/vThlv9aeo4Bd61OWvH+lo27/3llVPwLRbWxFChuB+5qowPSpAgsG3dJUk52/fEdm+0/b/Iknv0Hs8X2zp9ukLb5s7+z7Gyo66viLW/ZbG9tKf6vm6OzLMt2fWazFdsdn/ybzba7yfu0iXcF/rvtyHv/arPZ3jncNsjnifZ+8/vfbRGs/JZix70Qy7Jgd5O2ujUyrAh3WTZ09YjN9m7tTwKxtnzWNclGx3prd9psgnkORdneP71je+dI21A0+rTtyBbbu2f/ibhre+ezm2MC1AJ3bXtq/+EbHfw/R7bYbEeuRlnWe7O57Z++UCj0z3O7bbYtTC9w1xrETOEulo272OHd3eTl9Rht+w+b7cCRI1tsR67y1pFlSZ+h649v2YobhYws22W32fY0eQW7+27NP8W7QHb3FjriTfLv/ntQPCX8YHOLE+RZSFsPgWXjLvZ3xyR31/VH/mX/7+ckxhHcRTYV090mOAnIZ5AIzSLu/h01Ac9dG++WRL3Xa4+UvvvuvyG/ge8XAnetR1PNO1o27pL+Ln9l3u5u+Y/fF9u2fPZ3xGaCuwJNPzw/qlRR8HcNuRu9fsRmK3bc84YmZcoCd5UwWvZo2biL7e7oaCgq+Ltv/b4tgPxappfvZglexHuOf/Dno132LbZ3Pmm65x0dHR3sdvzVJfXVDLnrbS622YrPPR4d9f2jdo8NDesCdy3LVuWNLRt3CQfgs6tXjrxle+dPvfylA22/f8uGvNjQ35l3eTfC9sdulo0O/vV//Y4fZ7DZtvz7kbanKXGXDf3DsYf3Fv51p+Ov1eInCeCusokte7Qc3LUsWHBjpkIAuGuq5gBl0kAAuJsGWJDVVAgAd03VHKBMGggAd9MAC7KaCgHgrqmaA5RJAwHgbhpgQVZTIQDcNVVzgDJpIADcTQMsyGoqBIC7pmoOUCYNBIC7aYAFWU2FAHDXVM0ByqSBAHA3DbAgq6kQAO6aqjlAmTQQAO6mARZkNRUCwF1TNQcokwYCwN00wIKspkIAuGuq5gBl0kAAuJsGWJDVVAgAd03VHKBMGggAd9MAC7KaCgHgrqmaA5RJA4Hl5e7s7Gw4HA4Gg36/3+PxuN3uIfjLNgJut9vj8fj9/mAwGA6HZ2f5zTJy8W+5uBuJRJ4/f+52u0dGRsLhcCwWm5+fj8fjHPxlG4F4PD4/Px+LxcLh8MjIiNvtfv78eSQSyTn6Lj13I5GI3+9/9uxZJBIBsmabqMmvH4/HI5HIs2fP/H5/bjF4ibkbDAa9Xu/U1FRyzCCHyRCYmpryer3BYDBXDPCScTcWi/l8vrGxMbC1JuNkGurE4/GxsTGfzxeLxczP4KXhbjQa9Xg84XA4DZwgq1kRCIfDHo8nGpU2nzUri5eAu7FYzOPxRCIRs7YF6JU2ApFIxOPxmNz6LgF3fT4fWNy02WH6AuFw2OfzmdXm8notlrvBYHBsbCxpQwyMeSq7W7a1HF1XvYtiaIqhN9XtL2uvbH10cwEGzpLCl6UMY2NjZu66LYq7kUjE6/Uad87GZyYPXalGfN3aePjQleqKzoZjt86Vtp0sqNlDMXRBTUlj79UstQ5c1giBeDzu9XpNO3C2KO76/X7j4bC7vr4NtaUUQ/9/srpDgUScrg/e3+4spxj6QIcj8SxIso7A1NSU3+83p+eQOXfRgLYBuHd9fa+cem/j2TKX97FBNo7jvrzTSjH0vgsnjbPB2awggD4zmZC+mXMXfUjUQ3N8ZnJDbenGs2WDE8/08pDy+p6LyDyTQkibAQH0ed863J2dnXW73QaeLvJxk1pcsm3Kb9RTDH37aS8phHTWEYjH426324RTdjK0u2gahx6sA2OeDIzoDDu7/szunecr9KoFebYQQBOqzGZ6M+Qumj6nB2VldwvF0JqdM7LI+Mzkw+dPSMmJriaKoUOxJf/M4bIfd5EXSjXtd9qbNbqYqRa3Sj40kdUi3PX7/bFYTK9ptrUc3dp4WO8skgenQ29989EaR+HjoBvnfBAYoBj6h8DPWKJO+J0lKPqVIRddx4kQWXzOJeNuoLnE3q1WiuMCzmK78HC47PKVS5x+lJMU2rSKJ1aYvsTvdGooln49WiVisZgJRxsytLsej2d+fl7rNnnZuupdh65Uq86Oz0xiiX/yxaa6/RRDv+oo/L+jg1jOcRzF0Nd+uUdKiLTLbkMU4QLNJSXaFjHgLE7kxxJy117SnGDCu+0lxU6Ru/JD5bIXOwWjnenViTtPnlxO7s7Pz3s8HovYXeOOGsXQX3Q2kHC393+/+tT7HU/uchznDY++8fU+iqHXVhX1jvxCZuM4bo2jsK2/SyUUD7vthNHSJkSg2S5ZO7IOPjM2xnIl3ZKVJAknGk7Baso+g/jYBJrt9uPqS7ianc7jkt2Vq+ICzYmEFrUKNIvvD5v0NHL8tVzOYj5QsktO22z8A8A/kPyf+DBwHH7/2AQ98Y3YSsjbXqo06q5ZhLtDQ0MGuCR21Ar/9+fo09qXd1rR57TXqnaqLC6qcPXpHe3932tWruKlqxlZNTJvwJloFPnz/FtboqxkDv3OEswz8akIOIvxi16oVuQuae/tTr/ysRHyuBK5K9evzM8pXxp+ZwliJE9H6epEWmC5JO+2q982+CrLaXc5jhsaGrIId43t7qa6/aVtig8N0bnY242fIvoii9sXHCZJh9LB6RDF0J3DDxNPcXyTIzMmntTirpolUj0SX4VjxDNlbQLpFXZdyCraP9FREXTgjS75FKHaZO5ifxfbSOHJkcR2FxdwHlc8dWJtmIUcb1blPiIp51xOtack1bac3LWU3TX2d8vaKwtq9ki8EX8jL6OIvq9Xf6BJXI7jLg3coRj65zGvqiw6VLKNQ9zFnoCNN6L63MUmVnoG5IKIVsXOh4n+hvBqlgw2r4XEWulCEslk7qILKQmnHOWQyuKb7Hbyfo5UFS8m0wq+4rKSF4EdieXkrqX8XeNxhtZHNymGvj54H7cOSkReRkvbTvY861fJ8WFZe+VaRxE+VCcUdhG3oiKX67j0elWKSfagZ0D1JPDZFfUL5QUOkXVK3BVJLFGWkxKyVjhnwhMlWUpJQ2x3SVsrpzW4q/BtxPfPcnLXUuMMxuO7C/F4QU3Jdme51Dop/bq8jxM7ecqS8qtfZ6wKubaJ9JUpJfseCtOIriP7tRwXCMi2UOYKyUhnsxO/wRO5S1BWcXVBAWKQBKtB2loyrcFdosJuu9iBUxRRwrboI0uN7xp/V+M4rrH3KsXQX95pTRE3dmF+c8PBgpqS8Oy0URHcoSZ8gIT8xPvUZhM6N0RjSz4DXwrXJmZL6L/LhBCH3gjucqQ91uJugoNBKCp7LNgtlq+V3GeQhymOuyS/H931sowzWOq7WtL5DBzHHehwUAxd33ORaDLtJLswXyQMRFx58g/tHCDNHgJWm8/AsqzxPDIE9b4LJymGLr9RP8PO6oHv8j7e3HCQYuimH7/VywPyLCJgtXlkLMsmnb+L4D526xzF0OvP7D7R1fQgMIDbIDgdujRwp6y9Ulg6sQcsLkbGbAkLzt9lWTbpugnUDLef9u48X4EHd9c4Clef3oEO11YVfdHZkMTHNVtj5pM+1lw3gUxv0vVquKFDscgPgZ+v/XKvrb+rvf/7zuGHeuO4uAgksouAldersSyb4jrh7LYBXD0zBKy8Thh94Ib9GTJjhslLWX9/BpZlYV8ck7MwA/XyZV8clmVhP7IM+GHaInm0HxnyHGAfSNNyMXXF8nEfSDyzE/bfTZ0oZsuZv/vvYvrCvudmI6WxPrDvOaaumIB4E8aMyeJZiDehJqvmMcT5yXZQH43rQ5wfTa6CEBBYOQQyXOO+cgrClQABHQSAuzrAgNj0CAB3Td9EoKAOAsBdHWBAbHoEgLumbyJQUAcB4K4OMCA2PQLAXdM3ESiogwBwVwcYEJsegeXlLnxX0/iulW0RfFdL8lTCfIYszlgwvjTMZ9DlLswjM6aO2c7CPDKRyjB/12zUTF2f/J2/C+smUmeJaXPm47oJWK9mWjpmoFgerVeDdcIZ8MPkRfJlnTDsz2ByImamnvX3Z0hxX5yBMU9ld8u2lqPrqnehncg21e0va69sfXRzIR7PDFwotdwIWHlfnEgkknQ/svGZSRRbmGLorY2HD12pruhsOHbrXGnbSRTwp6CmpLH36nI3A9SfAQJW3o8s6T6Qd319G2pLUcgqzRCt1wfvb3eWUwx9oMORAbhQZLkRsOY+kEn3373r63vl1Hsbz5Yljeb+5Z1WiqH3XVCEtVruVoH6U0TAgvvvGu97Pj4zuaG2dOPZssGJZ6lgVN9zMTGiYCoFIc9yI2C1fc+TxptAPm5Si0viXn6jnmLo2097SSGks46A1eJNGMf5GRjzZGBEZ9jZ9Wd27zxfkfXWAgVUCFgqzo9xfLXK7haKoTU7ZyQo4zOTD58/ISUnupoohvZNBknh4tKK6FRpVEVGjEqjmDWzWiq+mnFcy20tR7c2HjZuxuB06K1vPlrjKHwcdOOcDwIDFEOf7+vEEnWCCBKtPiUcy3HLbDbDKK2apQnhIrgrBTwjasvxpKXiWhrHE15XvevQlWpVe43PTGKJf/LFprr9FEO/6ihURXOnGPpEVxPOSSZ4XhY7XYlRf8VMYvg+sggRXFIpTnoE3CUgslQ8YeM47hRDV3Q2EPfOtfd/v/rU+x1P7nIc5w2PvvH1PhTNvXfkFzIbx3FrHIVHr59VCclDMrJkCnLeZ8DGWI5qjSNayvExXXYx1roQ0lXmrhyoFdcjhkHlxHjcohp8SGsipKZcM6lmTqYtFcd9aGjIoBESO2qFQthKFKUVfU57rWqnyuKiClef3vGHm38xqFyHuwFns0urFM9IibJSOGIcwleOfy1HDBYrEbmrIK5UjxDMVaCmwj1A4dhVhNbSKRdlQ0NDussNsnQiw/VqxnZ3U93+0jbFh4boXOztxk9xiLW1VUV9weHEJgxOhyiG/vO9vyWewhId7ur1ySS+CuVR1F9lBHeB9NoR3F3OYrv0QKjrR1XlCXctZXeN/d2y9sqCmj2YbSgReRlF9H29+gNN4nIcd2ngDsXQne4fVGXJQ8xd+Q3Om0A1t6QiCjlirVwQOQnFzoeJPjTfKcQGWxWcmq9brKrZGZCuxFnX7lrK3zUeZ2h9dJNi6OuD93GzokTkZbS07WTPs36VHB+WtVeudRTFDWeWYe7iUihBRlUnTmlwV2l3hbzadjdA1Kmoh+O4RLuLFVMYY0KV3E1aapzBeHx3IR4vqCnZ7ixPq7Vc3scUQ3+h7OQl1oApknDKZbcJ3SzFCQXnRNaS/q6YWfZrOS4Q8GNDK/vBruOEGe62lzTzBjfQXCI5wfLVEa0VWuT4gaXGd42/q3Ec19h7FfXMUmw1dmF+c8PBgpo9SWML63OX55KzWBwssNlsAr20uCt00XA+xEJOcBIEoWqcAQ+9EZXLYwh4dMLuknwGDg1iyHlSxMC82Sz1XS3pfAaO4w50OCiGru+5mLRN2IX5ImEgAqK5J8Vq5TNYbT4Dy7LG88gQxPsunKQYuvxG/Qw7qwe6y/t4c8NBiqGbfvxWLw/Is4iA1eaRoSDuz54ln9947NY5iqHXn9l9oqvpQWAAt0FwOnRp4E5ZeyXF0AU1e8DiYmTMlrDg/F2WZZOum0DNcPtp787zFXhwd42jcPXpHehwraPoi86GpD6u2Zozf/Sx5roJZHqTrlfDzeybDJ7v6zzR1XT0+tk/3PzLn+/9rdP9g/FwGC4LiawgYOX1aizLprhOOCvQw0UXiYCV1wmj79iwP8MiKWLO4tbfn4FlWdgXx5zkW4xW+bIvDsuysB/ZYohitrJ5tB8Z8hxgH0izUTADffJxH0g8gRP2382AMSYpkr/772L6wr7nJuFiimrAvueYumIC4k2kSJ2VzwbxJtRk1TyGOD/ZDuqjcX2I86PJVRACAiuHQIbr1VZOQbgSIKCDAHBXBxgQmx4B4K7pmwgU1EEAuKsDDIhNjwBw1/RNBArqIADc1QEGxKZHALhr+iYCBXUQAO7qAANi0yOwvNyF72oa37WyLYLvakmeSpjPsPITFVK8Isxn0OUuzCNLkUMmyQbzyEQqw/xdkzAyAzXyd/4urJvIgC5mK5KP6yZgvZrZWLgYffJovRqsE14MUcxZNl/WCcP+DObk3yK1sv7+DCnuizMw5qnsbtnWcnRd9S60E9mmuv1l7ZWtj24uGO5yvsgGgOKLQcDK++JEIpGk+5GNz0yi2MIUQ29tPHzoSnVFZ8OxW+dK207+y9d7hU0gSxp7ry4GYii7TAhYeT+ypPtA3vX1bagtRSGrNEO0Xh+8v91ZTjH0gQ7HMjUAVLsYBKy5D2QkEjHef/eur++VU+9tPFuWNJr7l3daKYbed0ER1moxiEPZJUTAgvvvGu97Pj4zuaG2dOPZssGJ5PtLcxxX33MxMaLgEjYAVJUxAlbb9zxpvAnk4ya1uCSg5TfqKYa+/bSXFEI66whYLd6EcZyfgTFPBkZ0hp1df2b3zvMVWW8tUECFgKXi/BjHV6vsbqEYWrNzRoIyPjP58PkTUnKiq4liaN9kkBSuUDoxPOASXdgC4dYsFV/NOK7ltpajWxsPGzd9cDr01jcfrXEUPg66cc4HgQGKoc/3dWKJMkFEOCsmgqEqMwlBJ3H0NJstxThnybkrxwlMuKCRIEXuKmIPGtWXhXOWimtpHE94XfWuQ1eqVRiPz0xiiX/yxaa6/RRDv+ooVEVzpxj6RFcTzqlI+F0uvySQIktKx/gXh/LDktQSSbnbbbc3O+1COMvUahRzpcjdtOpc4cyWiidsHMc9MbRqe//3q0+93/HkLsdx3vDoG1/voxh6bVVR78gvqmZY4yg8ev2sSqh16HJq0Ug/6iUOQIniXaIqsbDE2WwXo6viAJdK0y5QMOA8Ltt7/lrdfMhs/g9bd1xcChCLuKtkMIq2iV8jfLR4rLkUqjsxvqwWDCsis1Qc96GhIQPQEjtqhULYShSltaBmD8XQr1XtVFlcVOHq0zv+cPMvBpWjU7illTkDzmaXUoKOyHDBnPR2JoU8iQXuuuyYsn7SyoqxXcnrBppLbFJmIrCwdH0parHIWtKuo+itOIarUEKs2e90dks1mOl3aGhId7lBlk5kuF7N2O5uqttf2qb40BCdi73d+CkOsba2qqgvOJzYNMHpEMXQf773t8RTpMR1nLSdijN2bP9IMckbXi4QUSVEh0o+yRHZcWaJkcpA2Dh2NnlV0UhLFhdHNpaMt9Ltwdwt0bwFsuIVT1vK7hr7u2XtlQU1e1QIR15GEX1fr/5Ak7gcx10auEMxdKf7B1VZ+VB4I0uh03mx9IZFb23MD7mEQDK7EzvK/BnePJMWlJcJ7ORNqeKPf5sLIbZRQpFW1oB9GOwJ2JBVlrjLiQnCnKPLoduRaxNCaYsRuhX3kbUDS/m7xuMMrY9uUgx9ffC+CuzIy2hp28meZ/0qOT4sa69c6yjSDxhIvNBxGWXCdVzLTcRWU8yM7K5TQWgtuytml11YkddqtvH5EHcVYxHIbGPucoI/EGh2qtwapLPMXeGqGk6IqE0Wfiw1zmA8vrsQjxfUlGx3lqcFs8v7OLGTR9aQ2OrkWSntskudJEkiOAk2bDg5id/kk6Dl70rl1TSS3AYl2xB3CcPfbVfZXcHeO7FHHuh2BdAlBEdFrK3bJTLbTI6vpcZ3jb+rcRzX2HsV9cwkAiT5ZRfmNzccLKgpMYgtrHqh679Vibe2TfKMCdspuxyy0O7CtlkWSn6I1CHD96BlKUWfQVbyuEttd/nBhBKNqwsOrvQkSEMfCRfFV1/5hKW+qyWdz8Bx3IEOB8XQ9T0Xk2LNLswXCQMRVo/mLvXSkiJipgxWm8/AsqzxPDIE/r4LJymGLr9RP8PO6jWHy/t4c8NBiqGbfvxWL49F5MqBhVy5KavNI0NB3I3n76K2Oas1H28AABrxSURBVHbrHMXQ68/sPtHV9CAwgBssOB26NHCnrL1SWDqxx/oWt1gcdsAI5ErCgvN3WZZNum4CNc/tp707z1fgwd01jsLVp3egw7VVRV90Nhj4uLnSwFbV05rrJpDpTbpeDTeqbzJ4vq/zRFfT0etn/3DzL3++97dO9w/6w2G4HCSyhoCV16uxLJviOuGswQ8XXgQCVl4njL5jw/4Mi6CHeYtaf38GlmVhXxzzEjBTzfJlXxyWZWE/skxJYsZyebQfGfIcYB9IM9IwTZ3ycR9IPIET9t9Nky0myp6/++9i+sK+5ybiYwqqwL7nmLpiAuJNpECb7GSBeBNqsmoeQ5yfbAf10bg+xPnR5CoIAYGVQyDD9WorpyBcCRDQQQC4qwMMiE2PAHDX9E0ECuogANzVAQbEpkcAuGv6JgIFdRAA7uoAA2LTIwDcNX0TgYI6CAB3dYABsekRWF7uwnc1je9a2RbBd7UkTyXMZ8jOZIUUrgrzGXS5C/PIUuCPibLAPDKRyjB/10SsTFOV/J2/C+sm0qSKGbPn47oJWK9mRiZmqlMerVeDdcKZksS85fJlnTDsz2BeDi5CM+vvz5DivjgDY57K7pZtLUfXVe9CO5Ftqttf1l7Z+ujmQjy+CISh6DIiYOV9cSKRSNL9yMZnJlFsYYqhtzYePnSluqKz4ditc6VtJ1HAn4Kaksbeq8vYAlB1pghYeT+ypPtA3vX1bagtRSGrNEO0Xh+8v91ZTjH0gQ5HpghDuWVEwJr7QEYiEeP9d+/6+l459d7Gs2VJo7l/eaeVYuh9FxRhrZaxQaDqdBCw4P67xvuej89Mbqgt3Xi2bHDiWSpA1fdcTIwomEpByLPcCFht3/Ok8SaQj5vU4pK4l9+opxj69tNeUgjprCNgtXgTxnF+BsY8GRjRGXZ2/ZndO89XZL21QAEVApaK82McX62yu4ViaM3OGQnK+Mzkw+dPSMmJriaKoX2TQVK4rGk5cB95GRyvihTmcdpS8dWM41puazm6tfGwcVsHp0NvffPRGkfh46Ab53wQGKAY+nxfJ5YoE1LsMRw1TXlaCL8qB1XVD8DGR2BFkdeBuwkQaggsFdfSOJ7wuupdh65UqzAYn5nEEv/ki011+ymGftVRqIrmTjH0ia4mnFMvoc05PvieHDpYLw9Zp3YesLskRhxnqXjCxnHcKYau6Gwgb7+9//vVp97veHKX4zhvePSNr/dRDL22qqh35BcyG8dxaxyFR76tVQkTD0mOkmdJuZTGUar5jGJodikgNcFdbNRLnM12OfokWXu+pi0Vx31oaMigHRM7aoVC2EoUpRV9TnutaqfK4qIKV5/e8YebfzGonD/ld5bohCyV+CrEEBbzpMJdl10OOIxjCyfRIq9ODw0N6S43yNKJDNerGdvdTXX7S9sUHxqic7G3Gz/FIdbWVhX1BYcT2z44HaIY+s/3/pZ4CkmkaL1awdqFHFIGPuC6ZDtT4K7KSVAd6mmTN3JL2V1jf7esvbKgZo+qZSMvo4i+r1d/oElcjuMuDdyhGLrT/YOqbMJhwFks0td1nKcp/6eIKM2XcB1H9E3OXcJaC5cC7ioRt5S/azzO0ProJsXQ1wfvKxHgIi+jpW0ne571q+T4sKy9cq2jKKWAgZLDisuihJKFiLUkd6Vo1FJx0d/tdjr9RE3AXQIMjuMsNc5gPL67EI8X1JRsd5YrEUhy5PI+phj6C2UnT6+MZFPV50nuBppLBLch4Cy2u1DGbrsNOcEq7nIuu+xAg7+rRtVS47vG39U4jmvsvYp6ZmoYdI7ZhfnNDQcLavYYxBbW8mXV1ZF5kBfB5+i2Y79Cd5zB75RGhu0usLtKXC31XS3pfAaO4w50OCiGru+5qMRB44hdmC8SBiKsHs1d497NL7LafAaWZY3nkaEm2XfhJMXQ5TfqZ9hZvUZyeR9vbjhIMXTTj9/q5QF5FhGw2jwyFMTdeP4ugvvYrXMUQ68/s/tEV9ODwABug+B06NLAnbL2SoqhC2r2gMXFyJgtYcH5uyzLJl03gZrh9tPenecr8ODuGkfh6tM70OHaqqIvOhsMfFyzNWS+6WPNdRPI9CZdr4Yb2zcZPN/XeaKr6ej1s3+4+Zc/3/tbp/uHlIbDcBWQWFkErLxejWXZFNcJryzmcLWlQcDK64TRd2zYn2FpmGKyWqy/PwPLsrAvjslYtwTq5Mu+OCzLwn5kS8AX01SRR/uRIc8B9oE0DfcyVyQf94HEEzhh/93MiZPtkvm7/y6mL+x7nm0Spnd92PccU1dMQLyJ9Bi0grkh3oSarJrHEOcn20F9NK4PcX40uQpCQGDlEMhwvdrKKQhXAgR0EADu6gADYtMjANw1fROBgjoIAHd1gAGx6REA7pq+iUBBHQSAuzrAgNj0CAB3Td9EoKAOAsBdHWBAbHoElpe78F1N47tWtkXwXS3JUwnzGVZwhkJ6l4L5DLrchXlk6VEp27lhHplIZZi/m20qZn79/J2/C+smMmeNaUrm47oJWK9mGvotgSJ5tF4N1gkvAV9MVkW+rBOG/RlMRrylUcf6+zOkuC/OwJinsrtlW8vRddW70E5km+r2l7VXtj66uRCPLw3YUMtSI2DlfXEikUjS/cjGZyZRbGGKobc2Hj50pbqis+HYrXOlbSf/5eu9wiaQJY29V5cadqhvCRCw8n5kSfeBvOvr21BbikJWaYZovT54f7uznGLoAx2OJQAbqlhqBKy5D2QkEjHef/eur++VU+9tPFuWNJr7l3daKYbed0ER1mqpWwHqyxABC+6/a7zv+fjM5Iba0o1nywYnnqWCWX3PxcSIgqkUhDzLjYDV9j1PGm8C+bhJLS6Je/mNeoqhbz/tJYWQzjoCVos3YRznZ2DMk4ERnWFn15/ZvfN8RdZbCxRQIWCpOD/G8dUqu1sohtbsnJGgjM9MPnz+hJSc6GqiGDoUi5BCSGcdAUvFVzOOa7mt5ejWxsPGiAenQ29989EaR+HjoBvnfBAYoBj6h8DPWKKTkGOyqjKQ8dVKmgOqs3CYGQKWimtpHE94XfWuQ1eqVTCNz0xiiX/yxaa6/RRDv+ooVEVzpxj62i/3cE7NRKDZbj9uV0RRlfKRcS3FeKvSKfjNGAFLxRM2juOeGFq1vf/71afe73hyl+M4b3j0ja/3UQy9tqqod+QXFaBrHIVt/V0qoeJQCKdKcpQ8S8pxWoxlifKJoYNd9uMuIY52idOP0zabTTdCPHmVfEtbKo770NCQQfsldtQKhbCVKEprQc0eiqFfq9qpsriowtWnd7T3f69fuRjMGvNSlZOQyyGCtblrQ1He+YDvdjItBxZW1Z3Xh0NDQ7rLDbJ0IsP1asZ2d1Pd/tI2xYeG6Fzs7cZPcYi1tVVFfcHhRC4Ep0MUQ3cOP0w8hSSu46JdJDiqyEv6u0IgbP6sNndljsos5zMflwJnKyrO6wNL2V1jf7esvbKgZo+qtSMvo4i+r1d/oElcjuMuDdyhGPrnMa+qLDqU4rLzR5i7wntfiHR9nI/VjuUCC0XLqs1dIb9QM+8z4CsGmp3yAZbmd8JS/q7xOEPro5sUQ18fvK9q8cjLaGnbyZ5n/So5Pixrr1zrKMKHykTAWSxGY8c/iSMJJHc5zuUUhhpI7koZSL6SaQ64q4SdP7LUOIPx+O5CPF5QU7LdWZ6IgoHE5X2c2MnTyy9RUH2elGM7jROCa4u8DpKvZBq4q4aU4zhLje8af1fjOK6x9yrqmWkgoSViF+Y3NxwsqClJMbYwyVGyPtLftcmeAN8bE/7sLmKcQSoI3JWQ0Pm11He1pPMZOI470OGgGLq+56IOILKYXZgvEgYiIJq7DIppUlabz8CyrPE8MoT8vgsnKYYuv1E/w87qtYXL+3hzw0GKoZt+/FYvD8iziIDV5pGhIO7G83cR3MdunaMYev2Z3Se6mh4EBnAbBKdDlwbulLVXCksn9oDFxciYLWHB+bssyyZdN4Ga4fbT3p3nK/Dg7hpH4erTO9DhWkfRF50NKfq4ZmvUfNDHmusmkOlNul4tHxrYqvdo5fVqLMumuE7Yqq1r7fuy8jph9B0b9mewJIOtvz8Dy7KwL471uJsv++KwLAv7kVmJvnm0HxnyHGAfSAvQNx/3gcQTOGH/3dxlcP7uv4vpC/ue5xZ9Yd9zTF0xAfEmTMtgiDehJqvmMcT5yXZQH43rQ5wfTa6CEBBYOQQyXK+2cgrClQABHQSAuzrAgNj0CAB3Td9EoKAOAsBdHWBAbHoEgLumbyJQUAcB4K4OMCA2PQLAXdM3ESiogwBwVwcYEJsegeXlbjQanZiYGBkZ8Xq9w8PDbrdb4zsPiFYWAbfbPTw87PV6R0ZGJiYmotGo6VmqreCycHdubm5iYsLr9fp8vvHx8enp6bm5uYWFBdN+4s83xRYWFubm5qanp8fHx30+n9frnZiYmJub0+aIWaVLz92JiYnh4eEXL17EYrF840SO3m8sFnvx4sXw8PDExIRZiaqh11JyNxqN+v3+0dHRubm5HG3FfFZ7bm5udHTU7/fnihexZNwNh8Nut3tyUt6YP595kLv3Pjk56Xa7w+GwhqEzmWhpuBsKhTweDzgJuUtZUnO0eDYUCpmMq2p1loC7aGke+Alk8+d6em5uzuPxmNz6Lpa70WjU7XaDxc11sibqH4vF3G63mX3fxXLX7/en4uMOjHkqu1u2tRxdV70L7US2qW5/WXtl66ObC/F4InAgMQMCk5OTfr9f/ao2zfGiuDsxMTE6OmqM8vjMJIotTDH01sbDh65UV3Q2HLt1rrTt5L98vVfYBLKksfeqcSVwNlsIjI6OmnbgLHPuzs3NDQ8PG7u5d319G2pLUcgqzRCt1wfvb3eWUwx9oMORreaB6xoggFvZNNZWViRz7k5MTLx48cLgtu/6+l459d7Gs2VJo7l/eaeVYuh9FxRhrQxqhlMricCLFy/MaXoz567X6zXooo3PTG6oLd14tmxw4lkqQNf3XEyMKJhKQciz3AjEYjGv1yubO9OkMuRuNBr1+XwGqCEfN6nFJWsov1FPMfTtp72kENJmQMDn85lwwCFD7k5MTIyPj+vBOjDmycCIzrCz68/s3nm+Qq9akGcLgfHxcRO6DRlyd2RkZHp6Wg/Kyu4WiqE1O2dkkfGZyYfPn5CSE11NFEOHYhFSSKblKJaaQau7pVBUUvTAxOCBZG0cF3A2QxBLJSRaR9PT0yMjI6ZxFkRFMuSu1+s1GGHY1nJ0a+NhLRBkWXA69NY3H61xFD4OurH0QWCAYugfAj9jiSpBRqhUnSIPU8wG3CVBM0jPzc2Z0OXNkLvDw8MG83HXVe86dKVahcX4jDxNxz/5YlPdfoqhX3UUqqK5Uwx97Zd7qrL4MEVS4mzYTstxsY8jm1zi9OOAgbZk5hlfP08TCwsLw8PDFrG7brdsLBPbMzG0anv/96tPvd/x5C7Hcd7w6Btf76MYem1VUe/IL6riaxyFbf1dKqF0mOorHnGXCMUqRWf3O53dUmX8b6oVkmXyM+12u/OFu8dunSPbuFAIW4mitBbU7KEY+rWqnSqLi/KvPr2jvf97siyRJsJhy/FWifNSUuCukpeItX5niaKgMo9UHH4TEbAOd419hk11+0vbFB8aonOxtxs/xSHW1lYV9QWHEwEKTocohu4cfph4SiXBNhV7BUT0YE7gruwSiF6CENOdE/pzkpMA3FXhqn1oKZ/BuK9W1l5ZULNHBUPkZRTR9/XqDzSJy3HcpYE7FEP/POZVldU6dDkRFzXPNTsDhv6ARH3grhZ8CTJL9dWMx8haH92kGPr64H0VCJGX0dK2kz3P+lVyfFjWXrnWUYQPDRIS+bSzJPq7Yr5ulzgkJjq+AedxZ0C7DpDKCFhqjMz428RCPF5QU7LdWS7ffQopl/dxYidPUc7vLElt4BZxl+M42aMQx4MlR6JYpGygma9SciEUV4MDjIClvk0k/Sbc2HsV9czw/Rsn2IX5zQ0HC2r2QGxhY6CyctZS34RZljWei8Nx3IEOB8XQ9T0Xk8LNLswXCQMREM09KVYrn8Fqc3FYlk06B5LjuH0XTlIMXX6jfoad1QPd5X28ueEgxdBNP36rlwfkWUTAgnMg8axkY1iP3TpHMfT6M7tPdDU9CAzgzMHp0KWBO2XtlcLSiT1gcTEypkrgVjbbhwmWZTP8JozuJJU1PxzH3X7au/N8BR7cXeMoXH16Bzpc6yj6orMBfFxT8ZVUxpprfhB9U1xrScIB6VxBwMprLVEUbFjjnitcTEtP669xZ1kW9hZJixM5kTkv9hZBngPs6ZQTjExRyTza0wnRF/bSS5EZJs+Wd3vpIfrCHqYm56Wxevm7hymiL/pmAXtHG7PEbGdh72jMXhb27DcbO1X6wJ79Mln1UhArZWXDoKR0NYiVokdXkAMCK4TAor4Jr5COcBlAQAsB4K4WKiDLBQSAu7nQSqCjFgLAXS1UQJYLCAB3c6GVQEctBIC7WqiALBcQAO7mQiuBjloIAHe1UAFZLiCwvNydnZ0Nh8PBYNDv93s8HrfbndKXH8i0nAi43W6Px+P3+4PBYDgcnp2dzQWiaui4XNyNRCLPnz93u90jIyPhcDgWi83Pz8chlJpqYkE2DuPx+Pz8fCwWC4fDIyMjbrf7+fPnkUhEgx3mFi09dyORiN/vf/bsWSQSAbJmg5zpXTMej0cikWfPnvn9/txi8BJzNxgMer3eqamp9PCD3CZAYGpqyuv1BoNBc1tbWbsl424sFvP5fGNjY2BrTcDDDFWIx+NjY2M+ny8Wi8kcMWtqabgbjUZR2O8MMYNiZkIALZ41YVAq1UO0BNxFS/MiEd3gPGZqF9AlJQQikYjH4zG59V0C7vp8vnA4nBIkkCl3EAiHwz6fT2XqTHW4WO4Gg8GxsbHcaRHQNA0ExsbGzNx1WxR3I5GI1+tNpXM2MOap7G7Z1nJ0XfUutBPZprr9Ze2VrY9uLsCgbxp0WtGs8Xjc6/WaduBsUdz1+/1Jh8PGZyZRbGGKobc2Hj50pbqis+HYrXOlbSdRwJ+CmpLG3qsr2iZwsZQRmJqa8vv9pnIVsDKZcxcNaBuDcNfXt6G2FMUW1gzRen3w/nZnOcXQBzocxlXB2WwhgD4zYcaYJ5E5d9GHRANA7/r6Xjn13sazZUmjuX95p5Vi6H0XFGGtDGqGUyuJAPq8bx7KYk0y5O7s7Kzb7TbwdMdnJjfUlm48WzY48SwVoOt7LmYQ+j2VmiHPIhGIx+Nut9uEU3Yy5C6axmEACvJxk1pcsobyG/UUQ99+2ksKIW0GBNCEKmzwTJLIkLto+pwerANjngyM6Aw7u/7M7p3nK/Sq1ZMHmu1Ov95JI7nruF0Mt2aUa8XP+Z12/bCHK64Nf0E0kdUklMVqZMhdv98fi8X0cKzsbqEYWrNzRhYZn5l8+PwJKTnR1UQxdChm+ImOiLJmE6KmLTl3A80l2Yy4Zj7uxmIxE442ZMhdj8czPz9P0o5Mb2s5urXxMClJTAenQ29989EaR+HjoBwS/kFggGLoHwI/J+YXJd12mxTWD+dZau667Med2Yx3aT7uzs/PezwebPBMksiQu8YdtXXVuw5dqcbcQonxmUks8U++2FS3n2LoVx2FqmjuFENf++UezqlMuOyKKOziSZ673VLIS5nZOOh7CfYoUBRLPjamUA/2GRSGtttu7+YUz4NAJhwiUzTJukKXs9hmswneCPGKsHdzHKcMAStyVAq1abMJeTgOc1cI222GsJuou2YSymI1MuTu0NCQklWKo8TQqu39368+9X7Hk7scx3nDo298vY9i6LVVRb0jvyhKctwaR2Fbf5dKKB52OzELyQw8IyXK4jjDruOYshJjuu1krHchYivPMAVx+TCuIu1kp1OgoEgsPoNQs65Quq7fWSJpxbO2mJeTjwR+cqR7cdlRfpG75orTPTQ0hEljkkSG3DW2u4kdtUIhbCWK0oo+p71WtVNlcVETrj69o73/e6k5Fb9kw5MnMF95oWTMFFHeedJLDCZK8uzptitdW2zaA85iqSeHDSEqiw51hCXSm0GtrboUvpCskPKxIRSQs2QnZSm7a+zvbqrbX9qm+NAQnYu93fgpDrG2tqqoLzic2A7B6RDF0J3DDxNP8W9cnfEEpdzFs5Z4WaPo2fZuTa7YsMFGVyQfAzmtoiknXkI2zHxhtTDRrAqPk/QICZ4Juij2RrCnIdUsuBOy8dZEZSWElvJ3jccZytorC2r2qECNvIwi+r5e/YEmcTmOuzRwh2Lon8e8qrLiod+JrRqZQYO7iElkJpWvKZzi6aWoE7vIUrh4ZERV3PU7nd3YwEvXSBAqtZLzIzlmtuu45ObyD6eTH7NLuJzmXUsXXolfS40zGI/vtj66STH09cH7KlwjL6OlbSd7nvWr5PiwrL1yraMIHyYmeNdWeinjs0qWCPYPe6U4k8qv9QcC2LXFfrCCx0LXCrkNvBWXvFjec8X9MA2hZDJ5Cir9XckD4Z8rp+TSSGZYoGyJ1MMTKnG5+O6doEZzloehLTW+a/xdbSEeL6gp2e4sJ5iTPOnyPk7s5GkUk3rfgm3kCaHJXaF7JJlPxAmerJJEOc7ACUNvl+XunXRZ5A3zhhCNHvCdfrG/qCsMSIU5vlrxTyolnCP6kUSeYqdLaXclbRVl5cpXMGWp72pJ5zM09l5FPbMUEWYX5jc3HCyo2WPG2MKqlzi6JU1hinebU9msNp+BZdmk88gOdDgohq7vuZi0pdiF+SJhIMKk0dw1aaopTHqrOZjBavPIWJZNZf7uvgsnKYYuv1E/w87qtZrL+3hzw0GKoZt+/FYvT5blmjTVFGZZ0WW5vAXn77Ism8q6iWO3zlEMvf7M7hNdTQ8CAxjd4HTo0sCdsvZKiqELavaY1OJidfM1Yc11E8j0prJe7fbT3p3nK/Dg7hpH4erTO9DhWkfRF50NZvRx85Ws5H1beb0ay7KwTphsbIulrbxOGH3Xhv0ZLEZZdDvW35+BZVnYF8d63M2XfXFYloX9yKxE3zzajwx5DrAPpAXom4/7QOIJnbD/bu4yOH/338X0hX3Pc4u+sO85pq6YgHgTpmUwxJtQk1XzGOL8LGfAngzrhjg/mlwFISCwcghkuF5t5RSEKwECOggAd3WAAbHpEQDumr6JQEEdBIC7OsCA2PQIAHdN30SgoA4CwF0dYEBsegSAu6ZvIlBQBwHgrg4wIDY9Av8PvMSSHEoh8aEAAAAASUVORK5CYII=;" vertex="1" parent="1">
          <mxGeometry x="260" y="360" width="179.65" height="330" as="geometry" />
        </mxCell>
      </root>
    </mxGraphModel>
  </diagram>
</mxfile>
